<?xml version="1.0" encoding="UTF-8"?>
<svg version="1.1" xmlns="http://www.w3.org/2000/svg" width="319" height="335">
<path d="M0 0 C105.27 0 210.54 0 319 0 C319 110.55 319 221.1 319 335 C213.73 335 108.46 335 0 335 C0 224.45 0 113.9 0 0 Z " fill="#093C42" transform="translate(0,0)"/>
<path d="M0 0 C2.23685644 0.34977326 4.46567892 0.75232286 6.6875 1.1875 C8.20638628 1.44651926 9.7259636 1.70150853 11.24609375 1.953125 C15.40259013 2.65155444 19.54562673 3.40721819 23.6875 4.1875 C23.3575 6.8275 23.0275 9.4675 22.6875 12.1875 C20.7075 12.5175 18.7275 12.8475 16.6875 13.1875 C14.10204418 23.22868889 12.04931897 32.7852045 11.6875 43.1875 C12.68330078 43.17009766 12.68330078 43.17009766 13.69921875 43.15234375 C22.46957381 43.06271968 22.46957381 43.06271968 26.6875 44.1875 C25.99315867 48.31209475 23.87761673 51.70797038 21.875 55.3125 C13.8283113 70.17065566 9.20195525 86.23562847 4.8125 102.5 C4.59730713 103.28173584 4.38211426 104.06347168 4.16040039 104.86889648 C3.05306 109.0806384 2.44984802 112.79093839 2.6875 117.1875 C3.863125 117.785625 5.03875 118.38375 6.25 119 C6.91128906 119.33644531 7.57257813 119.67289062 8.25390625 120.01953125 C15.05813567 123.2851245 21.68712132 125.39449347 29 127.25 C29.98162109 127.50587891 30.96324219 127.76175781 31.97460938 128.02539062 C34.87325076 128.77163252 37.77776436 129.48588131 40.6875 130.1875 C41.90723511 130.49530396 41.90723511 130.49530396 43.15161133 130.80932617 C50.34084586 132.46566582 57.39950883 132.45004532 64.75 132.375 C65.98427734 132.37435547 67.21855469 132.37371094 68.49023438 132.37304688 C73.95515911 132.87717787 73.95515911 132.87717787 78.6875 131.1875 C80.53641946 130.95386119 82.39238031 130.77446365 84.25 130.625 C85.26191406 130.54121094 86.27382812 130.45742187 87.31640625 130.37109375 C88.09886719 130.31050781 88.88132812 130.24992188 89.6875 130.1875 C89.42545582 126.99921741 89.15224621 123.81199588 88.875 120.625 C88.78879395 119.62629883 88.70258789 118.62759766 88.61376953 117.59863281 C88.16581296 112.64083273 87.65507817 107.71992216 86.88671875 102.80078125 C85.01552334 90.74895806 84.4111575 78.98908387 84.4375 66.8125 C84.43836609 66.04232544 84.43923218 65.27215088 84.44012451 64.4786377 C84.47825701 51.39674299 84.47825701 51.39674299 85.6875 50.1875 C87.03017413 50.10118126 88.37724322 50.08043527 89.72265625 50.08984375 C90.53154297 50.09306641 91.34042969 50.09628906 92.17382812 50.09960938 C93.4490332 50.11217773 93.4490332 50.11217773 94.75 50.125 C95.60400391 50.12951172 96.45800781 50.13402344 97.33789062 50.13867188 C99.45445663 50.15049627 101.57098685 50.16843231 103.6875 50.1875 C103.66300781 48.97578125 103.63851562 47.7640625 103.61328125 46.515625 C103.62396904 36.79400787 107.87095468 27.95523925 111.6875 19.1875 C107.7275 19.1875 103.7675 19.1875 99.6875 19.1875 C99.6875 15.8875 99.6875 12.5875 99.6875 9.1875 C114.8675 9.1875 130.0475 9.1875 145.6875 9.1875 C145.6875 12.4875 145.6875 15.7875 145.6875 19.1875 C144.0375 19.1875 142.3875 19.1875 140.6875 19.1875 C140.7596875 20.08210938 140.831875 20.97671875 140.90625 21.8984375 C141.45233576 29.01272148 141.83546439 36.05232853 141.6875 43.1875 C150.83500268 38.77637093 156.04919793 33.77549133 159.94140625 24.34375 C160.87264251 21.65242845 161.39717714 19.01814789 161.6875 16.1875 C160.6975 16.5175 159.7075 16.8475 158.6875 17.1875 C157.29310336 17.25415376 155.89580125 17.27288199 154.5 17.25 C152.6128125 17.2190625 152.6128125 17.2190625 150.6875 17.1875 C150.6875 13.8875 150.6875 10.5875 150.6875 7.1875 C151.78215576 7.10185791 152.87681152 7.01621582 154.00463867 6.92797852 C158.07698377 6.60857391 162.14900754 6.28522162 166.22094727 5.96069336 C167.98127908 5.8209485 169.74169554 5.6822655 171.50219727 5.54467773 C174.03685287 5.34640052 176.57117667 5.14427062 179.10546875 4.94140625 C179.88899216 4.8809462 180.67251556 4.82048615 181.4797821 4.75819397 C185.28677087 4.44975013 188.95111881 3.96261578 192.6875 3.1875 C195.02051986 3.14925377 197.35461508 3.14175716 199.6875 3.1875 C199.6875 6.8175 199.6875 10.4475 199.6875 14.1875 C197.3775 14.1875 195.0675 14.1875 192.6875 14.1875 C194.10943613 21.86595508 196.78481304 29.15277062 203.12890625 34.0859375 C207.17380409 36.55748461 211.26616687 38.48516853 215.6875 40.1875 C215.49414062 39.37667969 215.30078125 38.56585938 215.1015625 37.73046875 C213.4198213 30.57890593 211.92116821 23.4298581 210.6875 16.1875 C208.7075 15.8575 206.7275 15.5275 204.6875 15.1875 C204.6875 10.5675 204.6875 5.9475 204.6875 1.1875 C217.69715517 -0.78215517 217.69715517 -0.78215517 221.66796875 1.15234375 C223.30745565 3.04184038 224.44536452 5.01208436 225.6875 7.1875 C226.45118356 8.2880826 227.22562369 9.38124125 228.0078125 10.46875 C234.02776387 18.94199094 238.58429598 27.66258168 242.6875 37.1875 C243.36232422 38.60869141 243.36232422 38.60869141 244.05078125 40.05859375 C246.98383132 46.46045226 248.78938252 52.9896994 250.4375 59.8125 C250.75388428 61.11888428 250.75388428 61.11888428 251.07666016 62.45166016 C253.49477283 72.96320981 253.86918582 83.23795298 253.875 94 C253.88724609 95.18142578 253.89949219 96.36285156 253.91210938 97.58007812 C253.94286671 116.29078865 249.98759724 136.31822506 241.6875 153.1875 C241.34058105 153.8976123 240.99366211 154.60772461 240.63623047 155.33935547 C235.50461718 165.7458993 230.06510509 175.19645041 222.6875 184.1875 C221.94628906 185.12980469 221.20507812 186.07210937 220.44140625 187.04296875 C203.91493442 207.80846628 180.56591066 224.97296356 154.8125 232.484375 C152.46476869 233.21838249 152.46476869 233.21838249 149.45703125 234.6640625 C145.51511893 236.37729843 141.60219246 237.13429957 137.375 237.8125 C136.67955078 237.93367187 135.98410156 238.05484375 135.26757812 238.1796875 C96.24652154 244.76069063 57.13057938 238.42074758 24.5 215.375 C-7.64455446 191.88934468 -30.01040015 158.81924893 -37.23657227 119.34179688 C-39.94776232 101.56654741 -41.22377215 78.56493303 -35.12841797 61.53564453 C-34.26259588 59.04388006 -33.54351252 56.54036229 -32.84765625 53.99609375 C-32.60466797 53.11373047 -32.36167969 52.23136719 -32.11132812 51.32226562 C-31.61971959 49.52143968 -31.13275085 47.71934079 -30.65039062 45.91601562 C-29.09080908 40.29082309 -27.11823711 35.30165535 -24.3125 30.1875 C-23.83167969 29.26324219 -23.35085937 28.33898437 -22.85546875 27.38671875 C-19.79058921 21.70741747 -16.58021324 16.16499067 -13.01171875 10.78515625 C-11.29901403 8.24533255 -11.29901403 8.24533255 -9.95703125 5.68359375 C-7.23141379 1.08761123 -5.44105896 -0.34840568 0 0 Z " fill="#F9FCFC" transform="translate(60.3125,72.8125)"/>
<path d="M0 0 C105.27 0 210.54 0 319 0 C319 33.66 319 67.32 319 102 C315.77037886 100.38518943 314.92227742 96.96217063 313.4375 93.8125 C307.39794202 81.40951362 300.07674215 70.42827059 291 60 C289.81083984 58.60974609 289.81083984 58.60974609 288.59765625 57.19140625 C282.90570213 50.70815361 276.78809313 45.3013638 270 40 C269.18789063 39.32195313 268.37578125 38.64390625 267.5390625 37.9453125 C255.72394122 28.11849642 242.18959535 20.80483446 228 15 C228 14.34 228 13.68 228 13 C227.0925 13.04125 226.185 13.0825 225.25 13.125 C221.93955446 12.99767517 220.84557276 12.45710219 218 11 C214.05739782 9.76920481 210.02654448 8.91174829 206 8 C204.93845703 7.73968994 204.93845703 7.73968994 203.85546875 7.47412109 C176.03583651 0.72655697 146.18410277 2.33278158 119 11 C117.95295898 11.31662598 117.95295898 11.31662598 116.88476562 11.63964844 C92.80394689 18.94949472 72.49845625 33.31535738 54 50 C53.25105469 50.67546875 52.50210938 51.3509375 51.73046875 52.046875 C25.73183533 76.82764983 6.79320496 116.1057587 5.83886719 152.14257812 C5.81903187 153.60540124 5.80527992 155.06831655 5.796875 156.53125 C5.79117493 157.32543335 5.78547485 158.1196167 5.77960205 158.93786621 C5.7702122 160.61188451 5.76364221 162.28592079 5.75976562 163.95996094 C5.75013133 166.46584189 5.71908014 168.97087574 5.6875 171.4765625 C5.61771618 182.03759391 6.63549081 191.69606435 9 202 C9.20947266 202.96019043 9.41894531 203.92038086 9.63476562 204.90966797 C16.2232437 234.30656377 30.16144509 259.27154239 51 281 C52.14855469 282.22589844 52.14855469 282.22589844 53.3203125 283.4765625 C74.11980754 305.07861041 102.53781291 320.54070793 132 326 C132.74282227 326.14131348 133.48564453 326.28262695 134.25097656 326.42822266 C138.62237505 327.25950773 138.62237505 327.25950773 143.0012207 328.05029297 C147.79842943 328.89921471 147.79842943 328.89921471 150 330 C152.24668155 330.11044993 154.49673925 330.15449783 156.74609375 330.16796875 C157.42478012 330.1721582 158.10346649 330.17634766 158.80271912 330.18066406 C161.0143709 330.19048572 163.22582992 330.19044762 165.4375 330.1875 C166.56155243 330.18709213 166.56155243 330.18709213 167.70831299 330.18667603 C183.03688754 330.16096867 198.31548996 329.94983485 213 325 C213 324.34 213 323.68 213 323 C213.88300781 322.76925781 214.76601562 322.53851563 215.67578125 322.30078125 C223.48973833 320.17733212 230.73286204 317.60215484 238 314 C238.97710937 313.5359375 239.95421875 313.071875 240.9609375 312.59375 C261.9834309 302.4337789 280.79866545 287.54709812 295 269 C295.73863281 268.06542969 296.47726562 267.13085938 297.23828125 266.16796875 C305.44831788 255.57574532 312.31757681 244.13582842 318 232 C318.33 232 318.66 232 319 232 C319 265.99 319 299.98 319 335 C213.73 335 108.46 335 0 335 C0 224.45 0 113.9 0 0 Z " fill="#FDFDFD" transform="translate(0,0)"/>
<path d="M0 0 C2.06104325 1.64978003 2.92203925 2.36900521 3.25 5.0234375 C1.37425239 22.66718845 -9.26557502 41.17006643 -20 55 C-20.55429687 55.75539062 -21.10859375 56.51078125 -21.6796875 57.2890625 C-30.65451765 69.1142679 -41.56715853 79.88097777 -54 88 C-54.80953125 88.56589844 -55.6190625 89.13179688 -56.453125 89.71484375 C-84.13142297 108.43590112 -114.26069588 112.87405144 -147 112 C-148.918125 111.97099609 -148.918125 111.97099609 -150.875 111.94140625 C-183.40437949 110.57218492 -215.95583745 91.07950482 -238 68 C-249.20379759 55.49228162 -259.85863403 40.73993447 -266 25 C-265.505 23.515 -265.505 23.515 -265 22 C-264.48953125 22.65484375 -263.9790625 23.3096875 -263.453125 23.984375 C-243.33767675 49.23568237 -216.54632441 67.81443141 -183.84765625 71.71875 C-169.56754818 72.76257516 -155.95290779 72.24387066 -142 69 C-141.30938477 68.84966309 -140.61876953 68.69932617 -139.90722656 68.54443359 C-119.26502747 63.9620367 -100.13251006 54.2275822 -83 42 C-82.43361816 41.60039062 -81.86723633 41.20078125 -81.28369141 40.7890625 C-74.92523922 36.27355758 -69.01519827 31.38664088 -63.28515625 26.1015625 C-61.28942189 24.26616919 -59.25537197 22.50272655 -57.1875 20.75 C-54.03217299 18.02349025 -51.12382845 15.11213271 -48.21508789 12.12939453 C-38.13217707 1.81540205 -38.13217707 1.81540205 -32 -1 C-31.03126953 -1.46986328 -31.03126953 -1.46986328 -30.04296875 -1.94921875 C-20.4005722 -5.90278023 -8.7005526 -5.85614117 0 0 Z " fill="#03A1A1" transform="translate(302,196)"/>
<path d="M0 0 C3.25017663 0.14204679 6.50009516 0.28937509 9.75 0.4375 C10.65105469 0.47681641 11.55210938 0.51613281 12.48046875 0.55664062 C17.18779379 0.77364497 21.87007254 1.06541077 26.5625 1.5 C34.77735845 2.21251323 43.01023846 2.35637977 51.25 2.5625 C52.88151866 2.60581035 54.51302919 2.64942804 56.14453125 2.69335938 C60.09626678 2.7996751 64.0480889 2.89970852 68 3 C68 8.61 68 14.22 68 20 C69.32 20 70.64 20 72 20 C72 18.02 72 16.04 72 14 C75.96 14 79.92 14 84 14 C83.566875 15.27875 83.13375 16.5575 82.6875 17.875 C82.12274366 19.58258874 81.56034179 21.29095755 81 23 C80.73703125 23.79277344 80.4740625 24.58554688 80.203125 25.40234375 C78.14934201 31.86756877 77.01380241 38.2933071 76 45 C70.06 45.33 64.12 45.66 58 46 C57.59226329 64.40478188 57.74859712 82.24254647 60.57714844 100.46899414 C61.8474167 108.76479688 62.23027777 116.61085308 62 125 C59.16796875 125.48828125 56.3359375 125.9765625 53.50390625 126.46484375 C51.0712562 126.74751097 51.0712562 126.74751097 50 128 C32.84143609 129.48599709 16.50988816 127.60338601 0 123 C-1.18851563 122.67773438 -2.37703125 122.35546875 -3.6015625 122.0234375 C-11.4949081 119.62835902 -18.72585053 115.8307651 -26 112 C-25.14382603 103.15286895 -23.68149606 94.88961953 -20.81640625 86.47167969 C-19.99573284 83.98708113 -19.25303335 81.49042077 -18.52734375 78.9765625 C-14.94243921 66.78675438 -10.35256084 55.87489142 -4.03393555 44.84912109 C-2.96201531 42.93206706 -1.98225345 40.96450689 -1 39 C-5.95 38.67 -10.9 38.34 -16 38 C-16.48953684 27.35257368 -14.95346752 18.2007312 -12 8 C-11 7 -11 7 -7.9375 6.9375 C-6.4834375 6.9684375 -6.4834375 6.9684375 -5 7 C-5.33 9.64 -5.66 12.28 -6 15 C-4.68 15 -3.36 15 -2 15 C-2.04125 13.824375 -2.0825 12.64875 -2.125 11.4375 C-2.26804438 7.36073507 -1.19450868 3.87980181 0 0 Z " fill="#04B6B5" transform="translate(88,78)"/>
<path d="M0 0 C2.69451211 0.00313849 5.38790007 -0.02027982 8.08227539 -0.0456543 C30.76158566 -0.12918144 50.39506111 5.19337549 70.66235352 15.31567383 C71.61754883 15.7874707 72.57274414 16.25926758 73.55688477 16.74536133 C85.71140149 23.04506692 96.08363204 31.3235108 105.92016602 40.74926758 C108.51247612 43.28076812 108.51247612 43.28076812 111.02954102 45.03833008 C111.56836914 45.45985352 112.10719727 45.88137695 112.66235352 46.31567383 C112.66235352 46.97567383 112.66235352 47.63567383 112.66235352 48.31567383 C106.72235352 48.81067383 106.72235352 48.81067383 100.66235352 49.31567383 C100.33235352 47.66567383 100.00235352 46.01567383 99.66235352 44.31567383 C98.34235352 44.31567383 97.02235352 44.31567383 95.66235352 44.31567383 C95.66235352 46.62567383 95.66235352 48.93567383 95.66235352 51.31567383 C90.45279034 51.89293626 85.24243977 52.46226863 80.03125 53.0246582 C78.26311582 53.21655622 76.49520443 53.4105199 74.72753906 53.60668945 C55.89153756 55.69425309 55.89153756 55.69425309 46.66235352 55.31567383 C46.66235352 53.66567383 46.66235352 52.01567383 46.66235352 50.31567383 C45.34235352 50.31567383 44.02235352 50.31567383 42.66235352 50.31567383 C42.66235352 52.29567383 42.66235352 54.27567383 42.66235352 56.31567383 C27.81235352 56.31567383 12.96235352 56.31567383 -2.33764648 56.31567383 C-2.33764648 54.66567383 -2.33764648 53.01567383 -2.33764648 51.31567383 C-3.98764648 51.31567383 -5.63764648 51.31567383 -7.33764648 51.31567383 C-7.33764648 52.96567383 -7.33764648 54.61567383 -7.33764648 56.31567383 C-29.5269916 56.77691701 -51.26350961 55.54982604 -73.33764648 53.31567383 C-73.66764648 51.00567383 -73.99764648 48.69567383 -74.33764648 46.31567383 C-74.99764648 46.31567383 -75.65764648 46.31567383 -76.33764648 46.31567383 C-77.32764648 48.79067383 -77.32764648 48.79067383 -78.33764648 51.31567383 C-86.94529194 51.77679769 -94.95243955 50.0441582 -103.33764648 48.31567383 C-101.69133188 43.929042 -98.39454943 41.22055907 -95.02514648 38.12817383 C-94.39995117 37.55301025 -93.77475586 36.97784668 -93.13061523 36.38525391 C-74.54384497 19.60422959 -51.52061174 8.35078495 -27.33764648 2.31567383 C-26.66902588 2.12803467 -26.00040527 1.94039551 -25.31152344 1.74707031 C-17.00970935 -0.29722298 -8.49432163 -0.02062656 0 0 Z " fill="#FBFCFC" transform="translate(163.337646484375,20.684326171875)"/>
<path d="M0 0 C0.5878125 1.670625 0.5878125 1.670625 1.1875 3.375 C4.98827551 13.28854349 9.16812821 22.3451265 19.34375 27.09375 C22.11558014 28.10737987 22.11558014 28.10737987 25.578125 28.69140625 C29.35504821 30.13577757 30.25099889 31.28291419 31.90209961 34.90185547 C32.18190674 35.57361816 32.46171387 36.24538086 32.75 36.9375 C33.40662961 38.37911034 34.06971322 39.81779358 34.73828125 41.25390625 C35.09229004 42.01848145 35.44629883 42.78305664 35.81103516 43.57080078 C37.96191747 47.96531392 40.45664429 52.16068459 42.9375 56.375 C43.42250977 57.2012085 43.90751953 58.02741699 44.40722656 58.87866211 C45.27041803 60.34802563 46.1356165 61.81621374 47.00366211 63.28271484 C49.00128224 66.72580722 49.08680007 69.00719695 49 73 C47.72769531 73.11214844 47.72769531 73.11214844 46.4296875 73.2265625 C34.17323386 74.6003628 23.68242842 78.55987391 13.671875 85.8984375 C12 87 12 87 10 87 C9.74347656 86.27039063 9.48695313 85.54078125 9.22265625 84.7890625 C6.31475617 76.85842591 2.82986557 69.41410204 -1.05249023 61.91845703 C-1.43348877 61.17837402 -1.8144873 60.43829102 -2.20703125 59.67578125 C-2.5522583 59.01489502 -2.89748535 58.35400879 -3.25317383 57.6730957 C-4 56 -4 56 -4 54 C-4.99 54.495 -4.99 54.495 -6 55 C-6.70399574 57.26651625 -6.70399574 57.26651625 -7.25 60.0625 C-8.4841894 65.29997378 -10.0587774 70.28003936 -11.9375 75.3125 C-12.17823242 75.96935791 -12.41896484 76.62621582 -12.66699219 77.30297852 C-14.38205247 81.81668464 -16.51876418 85.85746159 -19 90 C-23.92706514 89.43654909 -28.16946232 88.34464359 -32.8125 86.625 C-41.34900567 83.59216405 -50.05646405 82.26008582 -59 81 C-57.40863996 72.59650222 -54.91992841 65.22041722 -51.42578125 57.42578125 C-48.78553987 51.0819684 -46.89713875 44.63945191 -47.125 37.75 C-45.57393809 32.57979363 -42.58832794 31.55205152 -38.0144043 28.99462891 C-28.15335911 23.41680117 -24.79786172 14.35202468 -21.75 3.875 C-21.5025 2.92625 -21.255 1.9775 -21 1 C-13.96094956 0.06145994 -7.09727428 -0.10808032 0 0 Z " fill="#049C9B" transform="translate(248,87)"/>
<path d="M0 0 C5.27850012 3.43716287 9.47886737 6.63557492 11.6875 12.75 C12.53296361 16.9236378 12.85674134 20.79563631 10.60546875 24.55859375 C8.76097428 26.50581955 6.80440531 28.09901644 4.6875 29.75 C3.60984337 30.6252766 2.53309075 31.50166689 1.45703125 32.37890625 C-2.08318443 35.23562953 -5.68671348 38.00312723 -9.3125 40.75 C-10.13621094 41.38035156 -10.95992187 42.01070312 -11.80859375 42.66015625 C-17.08160735 46.5258144 -22.67704146 49.74941193 -28.375 52.9375 C-29.11911133 53.35394775 -29.86322266 53.77039551 -30.62988281 54.19946289 C-37.50161178 57.9749802 -44.52970547 61.22760493 -51.9375 63.8125 C-54.89711833 64.84792203 -57.70369492 65.93331356 -60.546875 67.265625 C-64.88231196 69.1371846 -69.28148076 69.80147941 -73.9375 70.4375 C-74.84757812 70.56415039 -75.75765625 70.69080078 -76.6953125 70.82128906 C-86.58436131 72.08119192 -96.36607967 72.07396667 -106.3125 71.75 C-107.50359375 71.73066406 -108.6946875 71.71132813 -109.921875 71.69140625 C-135.23344739 70.65249843 -158.75037472 56.18346502 -176.3125 38.75 C-178.40527462 36.4723216 -180.36649147 34.15690529 -182.3125 31.75 C-178.47688171 33.23452634 -174.77745502 34.92424237 -171.0625 36.6875 C-144.31617531 48.99977461 -114.13850199 48.59958096 -86.3125 39.75 C-82.24103472 38.22863397 -78.27568851 36.53198841 -74.3125 34.75 C-73.60480469 34.45609375 -72.89710938 34.1621875 -72.16796875 33.859375 C-56.0670554 27.08652426 -41.98066338 17.72379892 -28.046875 7.3125 C-19.23708926 0.76533682 -11.16813063 -4.21438892 0 0 Z " fill="#05A2A1" transform="translate(229.3125,191.25)"/>
<path d="M0 0 C1.32 0 2.64 0 4 0 C4.495 2.475 4.495 2.475 5 5 C9.29 4.34 13.58 3.68 18 3 C18 3.99 18 4.98 18 6 C18.99 6 19.98 6 21 6 C21 6.66 21 7.32 21 8 C15.91913204 8.84681133 11.15171623 9.09038099 6 9 C6 13.62 6 18.24 6 23 C7.98 23 9.96 23 12 23 C13.60048918 27.49528701 14.69671153 31.94605104 15.625 36.625 C16.01558594 38.56246094 16.01558594 38.56246094 16.4140625 40.5390625 C17 44 17 44 17 48 C9.20979344 45.94425105 2.88756155 43.13740163 -1.83203125 36.375 C-4.7543159 31.33799414 -6.34802158 27.9163668 -6 22 C-3.69 22 -1.38 22 1 22 C1 18.37 1 14.74 1 11 C-0.4025 11.20496094 -1.805 11.40992187 -3.25 11.62109375 C-18.21272338 13.76354083 -32.86042319 15.2102719 -48 15 C-48 18.3 -48 21.6 -48 25 C-44.37 24.67 -40.74 24.34 -37 24 C-36.53732043 31.78458382 -39.89692444 38.43515725 -44.96875 44.26171875 C-48.67120979 47.65801359 -52.00934261 49.87710209 -57 51 C-58.03387512 42.9874678 -58.10466648 35.07094823 -58 27 C-56.35 27 -54.7 27 -53 27 C-53 23.7 -53 20.4 -53 17 C-67.85 17 -82.7 17 -98 17 C-98 16.67 -98 16.34 -98 16 C-96.47246094 15.96241577 -96.47246094 15.96241577 -94.9140625 15.92407227 C-91.10454587 15.82928342 -87.29518154 15.72924282 -83.48583984 15.62768555 C-81.84297266 15.58460506 -80.20006841 15.54291343 -78.55712891 15.50268555 C-76.18380603 15.44432515 -73.81066521 15.38082725 -71.4375 15.31640625 C-70.71320801 15.29969376 -69.98891602 15.28298126 -69.24267578 15.26576233 C-64.43747986 15.12887092 -59.76251497 14.65859582 -55 14 C-55.97759277 14.00523682 -56.95518555 14.01047363 -57.96240234 14.01586914 C-61.63394229 14.03414501 -65.30547832 14.04551349 -68.97705078 14.05493164 C-70.55778686 14.05992073 -72.13851841 14.06671438 -73.71923828 14.07543945 C-82.21918732 14.1211381 -90.55109515 14.07516124 -99 13 C-99 11.02 -99 9.04 -99 7 C-98.67 7 -98.34 7 -98 7 C-98 8.65 -98 10.3 -98 12 C-83.15 12 -68.3 12 -53 12 C-53 10.02 -53 8.04 -53 6 C-51.68 6 -50.36 6 -49 6 C-49 7.65 -49 9.3 -49 11 C-47.79988281 10.87882812 -46.59976563 10.75765625 -45.36328125 10.6328125 C-40.88336957 10.18155265 -36.40294974 9.73552125 -31.92236328 9.29101562 C-29.98830285 9.09841746 -28.05438044 8.9044278 -26.12060547 8.70898438 C-23.33076093 8.42726901 -20.54044783 8.15066773 -17.75 7.875 C-16.89446533 7.78750488 -16.03893066 7.70000977 -15.1574707 7.60986328 C-10.07668562 7.11381178 -5.10510336 6.91765962 0 7 C0 4.69 0 2.38 0 0 Z " fill="#35595E" transform="translate(259,65)"/>
<path d="M0 0 C15.11851657 0.66239142 30.21339463 1.55429455 45.3125 2.5625 C47.43293111 2.7026495 49.55337378 2.84262425 51.67382812 2.98242188 C56.78268685 3.31961109 61.89138584 3.65912643 67 4 C67 7.63 67 11.26 67 15 C62.38 15.33 57.76 15.66 53 16 C52.46375 17.381875 51.9275 18.76375 51.375 20.1875 C48.89837355 25.75334601 45.99876024 28.29800095 40.6875 31.3125 C35.28167092 32.69538651 30.74934347 32.85816849 25.6875 30.375 C22.11586904 27.21867496 19.25934411 24.55579436 18.7578125 19.61328125 C18.75084196 17.3931653 18.82300301 15.21246241 19 13 C18.0925 13.0825 17.185 13.165 16.25 13.25 C10.55186003 13.29699497 5.27550356 10.9404151 0 9 C0 6.03 0 3.06 0 0 Z " fill="#FAFCFC" transform="translate(88,78)"/>
<path d="M0 0 C0.99 0 1.98 0 3 0 C2.67 3.96 2.34 7.92 2 12 C-3.94 12.33 -9.88 12.66 -16 13 C-16.40773671 31.40478188 -16.25140288 49.24254647 -13.42285156 67.46899414 C-12.1525833 75.76479688 -11.76972223 83.61085308 -12 92 C-14.83203125 92.48828125 -17.6640625 92.9765625 -20.49609375 93.46484375 C-22.9287438 93.74751097 -22.9287438 93.74751097 -24 95 C-37.62494605 95.92638966 -51.86636986 96.07846555 -65 92 C-65 91.67 -65 91.34 -65 91 C-64.05906494 91.03552979 -63.11812988 91.07105957 -62.14868164 91.10766602 C-38.06141662 92.05838296 -38.06141662 92.05838296 -14 91 C-14 84.4 -14 77.8 -14 71 C-14.66 71 -15.32 71 -16 71 C-17.84922046 53.63887196 -19.22883717 36.46790372 -19 19 C-19.99 18.67 -20.98 18.34 -22 18 C-22.03738281 18.97582031 -22.07476562 19.95164063 -22.11328125 20.95703125 C-22.17902344 22.22933594 -22.24476563 23.50164062 -22.3125 24.8125 C-22.39951172 26.70935547 -22.39951172 26.70935547 -22.48828125 28.64453125 C-23 32 -23 32 -24.26953125 33.8984375 C-27.54206951 35.98163341 -31.19569281 36.02674381 -35 36 C-37.9375 35.0625 -37.9375 35.0625 -40 34 C-40.66 34 -41.32 34 -42 34 C-41.88501733 31.79112243 -41.75756495 29.58289213 -41.625 27.375 C-41.55539063 26.14523438 -41.48578125 24.91546875 -41.4140625 23.6484375 C-41.0185513 20.16346145 -40.23738151 17.26950399 -39 14 C-37.80761719 13.95101562 -36.61523438 13.90203125 -35.38671875 13.8515625 C-33.82028932 13.77652396 -32.25388421 13.7009766 -30.6875 13.625 C-29.90181641 13.5940625 -29.11613281 13.563125 -28.30664062 13.53125 C-27.54931641 13.49257812 -26.79199219 13.45390625 -26.01171875 13.4140625 C-24.96697388 13.36693115 -24.96697388 13.36693115 -23.90112305 13.31884766 C-21.67467261 13.07881747 -21.67467261 13.07881747 -19 11 C-15.10497926 9.98420012 -11.19444501 9.72081934 -7.1875 9.4375 C-5.44533203 9.31181641 -5.44533203 9.31181641 -3.66796875 9.18359375 C-2.78753906 9.12300781 -1.90710938 9.06242187 -1 9 C-0.67 6.03 -0.34 3.06 0 0 Z " fill="#15AAA9" transform="translate(162,111)"/>
<path d="M0 0 C0.99 0.33 1.98 0.66 3 1 C3 3.31 3 5.62 3 8 C4.00401855 7.9836853 4.00401855 7.9836853 5.02832031 7.96704102 C11.66803127 7.90624841 18.14654202 8.28927274 24.75 8.9375 C39.47596072 10.2859528 54.22311239 10.63994509 69 11 C69 9.35 69 7.7 69 6 C70.32 6 71.64 6 73 6 C73 7.98 73 9.96 73 12 C88.18 12 103.36 12 119 12 C114.82825425 16.17174575 106.27917546 15.18449826 100.5625 15.31640625 C99.79695801 15.33718735 99.03141602 15.35796844 98.24267578 15.37937927 C95.8285302 15.44408136 93.41428819 15.50338541 91 15.5625 C89.35025097 15.60576095 87.70051122 15.64937748 86.05078125 15.69335938 C82.03395089 15.80034028 78.0170343 15.89999968 74 16 C73.67 21.28 73.34 26.56 73 32 C71.68 32 70.36 32 69 32 C69 26.39 69 20.78 69 15 C65.66261719 15.03480469 65.66261719 15.03480469 62.2578125 15.0703125 C41.7650409 15.2355942 21.3080791 15.14831952 1 12 C1.020625 12.969375 1.04125 13.93875 1.0625 14.9375 C1 18 1 18 0 19 C-0.23075082 20.34747084 -0.41153063 21.70377565 -0.5625 23.0625 C-0.706875 24.361875 -0.85125 25.66125 -1 27 C-2.32 27 -3.64 27 -5 27 C-5.2417234 21.31950015 -4.35992692 16.52470311 -3 11 C-9.93 10.505 -9.93 10.505 -17 10 C-17 9.67 -17 9.34 -17 9 C-13.7 8.67 -10.4 8.34 -7 8 C-7.33 7.34 -7.66 6.68 -8 6 C-6.576875 5.9071875 -6.576875 5.9071875 -5.125 5.8125 C-4.09375 5.544375 -3.0625 5.27625 -2 5 C-0.54708727 2.53744315 -0.54708727 2.53744315 0 0 Z " fill="#2B5056" transform="translate(87,66)"/>
<path d="M0 0 C2.06104325 1.64978003 2.92203925 2.36900521 3.25 5.0234375 C1.36130682 22.78895776 -9.34762091 40.99509551 -20 55 C-20.98302557 56.37224382 -21.9625542 57.74700398 -22.9375 59.125 C-23.618125 60.07375 -24.29875 61.0225 -25 62 C-26 59 -26 59 -25 56 C-24.34 55.67 -23.68 55.34 -23 55 C-22.15688424 53.12816413 -22.15688424 53.12816413 -22 51 C-22.66 50.01 -23.32 49.02 -24 48 C-23.071875 47.95875 -22.14375 47.9175 -21.1875 47.875 C-17.76956836 47.32719644 -17.76956836 47.32719644 -16.3125 44.25 C-15.879375 43.1775 -15.44625 42.105 -15 41 C-12.30769231 36.15384615 -12.30769231 36.15384615 -10 35 C-9.27095914 33.35965807 -8.61344757 31.68698082 -8 30 C-7.33333333 28.33333333 -6.66666667 26.66666667 -6 25 C-5.34 25 -4.68 25 -4 25 C-4.04125 24.071875 -4.0825 23.14375 -4.125 22.1875 C-4 19 -4 19 -2 16 C-1.62117139 14.01605112 -1.62117139 14.01605112 -1.5 11.9375 C-1 8 -1 8 1 6 C-0.32 6 -1.64 6 -3 6 C-3 4.35 -3 2.7 -3 1 C-3.66 1 -4.32 1 -5 1 C-5 0.34 -5 -0.32 -5 -1 C-14.63461025 -2.31059036 -21.32879722 -1.81733488 -30 3 C-30.9075 3.474375 -31.815 3.94875 -32.75 4.4375 C-35.15899757 6.11041498 -35.97296307 7.29235718 -37 10 C-38.98 10 -40.96 10 -43 10 C-43.0825 10.78375 -43.165 11.5675 -43.25 12.375 C-43.4975 13.24125 -43.745 14.1075 -44 15 C-45.32467746 15.6837045 -46.65863633 16.34964186 -48 17 C-48.495 18.2684375 -48.495 18.2684375 -49 19.5625 C-49.33 20.366875 -49.66 21.17125 -50 22 C-52.0625 22.6875 -52.0625 22.6875 -54 23 C-54.33 23.66 -54.66 24.32 -55 25 C-55.66 25 -56.32 25 -57 25 C-57 25.66 -57 26.32 -57 27 C-58.98 27.66 -60.96 28.32 -63 29 C-63 29.99 -63 30.98 -63 32 C-64.79296875 33.46484375 -64.79296875 33.46484375 -67.1875 34.9375 C-69.91910779 36.65708355 -72.37849896 38.31267305 -74.875 40.375 C-77 42 -77 42 -80 42 C-80 42.66 -80 43.32 -80 44 C-85.73895839 49.45201047 -92.0049099 53.20049099 -100 54 C-97.30692101 50.95231631 -93.98422538 48.99576651 -90.5625 46.875 C-80.81616367 40.70822719 -71.77064854 33.92811799 -63.28515625 26.1015625 C-61.28942189 24.26616919 -59.25537197 22.50272655 -57.1875 20.75 C-54.03217299 18.02349025 -51.12382845 15.11213271 -48.21508789 12.12939453 C-38.13217707 1.81540205 -38.13217707 1.81540205 -32 -1 C-31.35417969 -1.31324219 -30.70835937 -1.62648437 -30.04296875 -1.94921875 C-20.4005722 -5.90278023 -8.7005526 -5.85614117 0 0 Z " fill="#35B7B8" transform="translate(302,196)"/>
<path d="M0 0 C3.25395894 3.14899252 6.30045098 6.4304588 9.3125 9.8125 C10.87253887 11.5438874 12.43495061 13.27314042 14 15 C14.61617187 15.68449219 15.23234375 16.36898437 15.8671875 17.07421875 C24.04174626 25.72241074 34.39657488 32.67023605 45 38 C44.34 38.66 43.68 39.32 43 40 C37.64485683 37.03706364 32.3068628 34.04862331 27 31 C27 31.928125 27 32.85625 27 33.8125 C27 35.875 27 37.9375 27 40 C27.66 40 28.32 40 29 40 C29.12375 40.928125 29.12375 40.928125 29.25 41.875 C29.4975 42.57625 29.745 43.2775 30 44 C30.93005859 44.44472656 30.93005859 44.44472656 31.87890625 44.8984375 C34.37389894 46.19417956 35.17594271 47.40776708 36.6875 49.75 C39.61462485 53.8886084 42.909362 56.21378151 47.2421875 58.7734375 C47.82226562 59.17820312 48.40234375 59.58296875 49 60 C49 60.66 49 61.32 49 62 C49.73089844 62.26683594 50.46179688 62.53367187 51.21484375 62.80859375 C54.76992891 64.32935248 57.67374259 66.43251424 60.81640625 68.66015625 C62.93571422 69.96055452 64.61981664 70.41146451 67 71 C67.33 71.66 67.66 72.32 68 73 C71.06321638 74.34906187 74.18002074 75.50522007 77.3125 76.68359375 C78.199375 77.11800781 79.08625 77.55242187 80 78 C80.33 78.99 80.66 79.98 81 81 C67.7700598 77.45626602 55.63148975 69.44085137 45 61 C44.4834082 60.59023926 43.96681641 60.18047852 43.43457031 59.75830078 C27.55482474 47.04979223 15.32616112 32.04638521 6 14 C4.37244278 11.10114808 2.74100591 8.20464632 1.1015625 5.3125 C0 3 0 3 0 0 Z " fill="#118F90" transform="translate(36,218)"/>
<path d="M0 0 C15.18 0 30.36 0 46 0 C46 5.94 46 11.88 46 18 C47.32 18 48.64 18 50 18 C50 15.03 50 12.06 50 9 C53.63 8.67 57.26 8.34 61 8 C61.46267957 15.78458382 58.10307556 22.43515725 53.03125 28.26171875 C49.32879021 31.65801359 45.99065739 33.87710209 41 35 C39.96612488 26.9874678 39.89533352 19.07094823 40 11 C41.65 11 43.3 11 45 11 C45 7.7 45 4.4 45 1 C30.15 1 15.3 1 0 1 C0 0.67 0 0.34 0 0 Z " fill="#36A4A5" transform="translate(161,81)"/>
<path d="M0 0 C0.33 0 0.66 0 1 0 C1 5.61 1 11.22 1 17 C2.32 17 3.64 17 5 17 C5 15.35 5 13.7 5 12 C6.98 12 8.96 12 11 12 C12.60048918 16.49528701 13.69671153 20.94605104 14.625 25.625 C15.01558594 27.56246094 15.01558594 27.56246094 15.4140625 29.5390625 C16 33 16 33 16 37 C8.20979344 34.94425105 1.88756155 32.13740163 -2.83203125 25.375 C-5.7543159 20.33799414 -7.34802158 16.9163668 -7 11 C-4.69 11 -2.38 11 0 11 C0 7.37 0 3.74 0 0 Z " fill="#189898" transform="translate(260,76)"/>
<path d="M0 0 C5.27671285 3.43599907 9.48300231 6.63541957 11.6875 12.75 C12.38853878 16.26075772 12.57469077 19.26419885 11.6875 22.75 C9.66830113 25.28026161 7.41994092 27.03525391 4.6875 28.75 C4.1925 27.76 4.1925 27.76 3.6875 26.75 C4.3475 26.75 5.0075 26.75 5.6875 26.75 C5.6875 26.09 5.6875 25.43 5.6875 24.75 C6.3475 24.42 7.0075 24.09 7.6875 23.75 C7.74149736 22.29207116 7.78029177 20.83357288 7.8125 19.375 C7.83570313 18.56289062 7.85890625 17.75078125 7.8828125 16.9140625 C7.90120051 14.53657757 7.90120051 14.53657757 5.6875 12.75 C6.3475 11.43 7.0075 10.11 7.6875 8.75 C6.924375 9.08 6.16125 9.41 5.375 9.75 C2.6875 10.75 2.6875 10.75 -0.3125 10.75 C0.5625 6 0.5625 6 1.6875 3.75 C-0.80314888 3.06292445 -2.69136292 2.75 -5.3125 2.75 C-5.6425 3.08 -5.9725 3.41 -6.3125 3.75 C-7.7680937 3.84858603 -9.22857919 3.87972143 -10.6875 3.875 C-11.47898438 3.87757813 -12.27046875 3.88015625 -13.0859375 3.8828125 C-15.3125 3.75 -15.3125 3.75 -18.3125 2.75 C-18.6528125 3.61625 -18.6528125 3.61625 -19 4.5 C-20.65033478 7.32914534 -22.74508577 8.73274596 -25.3125 10.75 C-26.68618345 12.38356951 -28.03187515 14.0425002 -29.3125 15.75 C-29.9725 14.76 -30.6325 13.77 -31.3125 12.75 C-34.7219393 14.40864615 -36.11448686 15.34572317 -37.8125 18.8125 C-39.60909825 22.33083824 -40.69327906 22.54359302 -44.3125 23.75 C-44.9725 24.74 -45.6325 25.73 -46.3125 26.75 C-46.9725 26.75 -47.6325 26.75 -48.3125 26.75 C-48.3125 26.09 -48.3125 25.43 -48.3125 24.75 C-49.6325 24.42 -50.9525 24.09 -52.3125 23.75 C-51.4875 23.23953125 -50.6625 22.7290625 -49.8125 22.203125 C-42.26360061 17.46970722 -35.06032556 12.46357962 -28.08398438 6.91308594 C-19.63987504 0.35468185 -10.58290678 -3.99354973 0 0 Z " fill="#27B5B4" transform="translate(229.3125,191.25)"/>
<path d="M0 0 C2.64 0 5.28 0 8 0 C7.30480778 4.10935845 6.0584649 7.84055028 4.625 11.75 C0.93117395 21.75595841 0.93117395 21.75595841 -2 32 C-4.64 32 -7.28 32 -10 32 C-9.48211758 20.29585742 -5.52102225 10.22746744 0 0 Z " fill="#1AA7A7" transform="translate(177,91)"/>
<path d="M0 0 C1.17691406 0.00257812 2.35382813 0.00515625 3.56640625 0.0078125 C5.32791016 0.00394531 5.32791016 0.00394531 7.125 0 C10.12890625 0.1328125 10.12890625 0.1328125 12.12890625 1.1328125 C10.65475346 15.13726396 10.65475346 15.13726396 6.19140625 19.0703125 C3.12890625 21.1328125 3.12890625 21.1328125 0.12890625 21.1328125 C-3.07152613 18.02382105 -3.78719293 16.14302374 -4.16015625 11.65234375 C-4.18173841 8.1236601 -4.1552934 4.6503655 -3.87109375 1.1328125 C-2.87109375 0.1328125 -2.87109375 0.1328125 0 0 Z " fill="#EFF9FA" transform="translate(126.87109375,125.8671875)"/>
<path d="M0 0 C1.2065625 0.0309375 1.2065625 0.0309375 2.4375 0.0625 C3.59699988 3.46318087 3.24299498 5.37482085 2.125 8.75 C-0.13387777 16.37630293 -0.77669114 24.17667699 -1.5625 32.0625 C-4.5325 32.0625 -7.5025 32.0625 -10.5625 32.0625 C-13.16126755 22.21922289 -7.20067083 10.23644876 -3.5625 1.0625 C-2.5625 0.0625 -2.5625 0.0625 0 0 Z " fill="#1CB9B9" transform="translate(69.5625,82.9375)"/>
<path d="M0 0 C1.32 0 2.64 0 4 0 C4.33 1.65 4.66 3.3 5 5 C9.29 4.34 13.58 3.68 18 3 C18 3.99 18 4.98 18 6 C18.99 6 19.98 6 21 6 C21 6.66 21 7.32 21 8 C20.01 8.165 19.02 8.33 18 8.5 C17.443125 8.5928125 16.88625 8.685625 16.3125 8.78125 C12.88950733 9.1050466 9.43827327 9 6 9 C6 15.27 6 21.54 6 28 C4.68 28 3.36 28 2 28 C2 22.39 2 16.78 2 11 C-3.28 11 -8.56 11 -14 11 C-11.13762752 8.13762752 -9.93918095 7.09269507 -5.95703125 6.90234375 C-5.24933594 6.91394531 -4.54164063 6.92554687 -3.8125 6.9375 C-1.9253125 6.9684375 -1.9253125 6.9684375 0 7 C0 4.69 0 2.38 0 0 Z " fill="#2A4C52" transform="translate(259,65)"/>
<path d="M0 0 C0.99 0.33 1.98 0.66 3 1 C3 3.31 3 5.62 3 8 C3.97030151 7.98259766 3.97030151 7.98259766 4.96020508 7.96484375 C12.25571042 7.8922194 19.42475865 8.34177237 26.6875 9 C27.78255859 9.09539062 28.87761719 9.19078125 30.00585938 9.2890625 C32.67097457 9.52182365 35.33563186 9.7588633 38 10 C38 10.33 38 10.66 38 11 C28.76 11 19.52 11 10 11 C12.97 11.33 15.94 11.66 19 12 C19 12.33 19 12.66 19 13 C12.88909517 13.09945415 7.02596573 13.0712828 1 12 C1.020625 12.969375 1.04125 13.93875 1.0625 14.9375 C1 18 1 18 0 19 C-0.23075082 20.34747084 -0.41153063 21.70377565 -0.5625 23.0625 C-0.706875 24.361875 -0.85125 25.66125 -1 27 C-2.32 27 -3.64 27 -5 27 C-5.2417234 21.31950015 -4.35992692 16.52470311 -3 11 C-9.93 10.505 -9.93 10.505 -17 10 C-17 9.67 -17 9.34 -17 9 C-13.7 8.67 -10.4 8.34 -7 8 C-7.33 7.34 -7.66 6.68 -8 6 C-6.576875 5.9071875 -6.576875 5.9071875 -5.125 5.8125 C-4.09375 5.544375 -3.0625 5.27625 -2 5 C-0.54708727 2.53744315 -0.54708727 2.53744315 0 0 Z " fill="#34565A" transform="translate(87,66)"/>
<path d="M0 0 C0.33 0 0.66 0 1 0 C1.01401855 0.93791382 1.01401855 0.93791382 1.02832031 1.89477539 C1.30285665 16.7937548 2.44428483 31.338227 4.62792969 46.06274414 C5.83782681 54.48040912 6.22756255 62.50106901 6 71 C1.75195312 71.73242188 1.75195312 71.73242188 -2.49609375 72.46484375 C-4.9287438 72.74751097 -4.9287438 72.74751097 -6 74 C-19.62494605 74.92638966 -33.86636986 75.07846555 -47 71 C-47 70.67 -47 70.34 -47 70 C-46.05906494 70.03552979 -45.11812988 70.07105957 -44.14868164 70.10766602 C-20.06141662 71.05838296 -20.06141662 71.05838296 4 70 C4 63.4 4 56.8 4 50 C3.34 50 2.68 50 2 50 C-0.1986275 33.31398775 -0.21874537 16.79291363 0 0 Z " fill="#41C0BD" transform="translate(144,132)"/>
<path d="M0 0 C3.79147211 1.46902056 7.4516353 3.13308505 11.125 4.875 C16.25167225 7.26938897 21.37837188 9.29504962 26.7578125 11.04296875 C29.09629893 12.0411032 30.35325564 13.08956128 32 15 C30.576875 14.9071875 30.576875 14.9071875 29.125 14.8125 C27.578125 14.9053125 27.578125 14.9053125 26 15 C25.01 16.485 25.01 16.485 24 18 C24.66 18 25.32 18 26 18 C26 18.66 26 19.32 26 20 C26.66 20.33 27.32 20.66 28 21 C28 21.99 28 22.98 28 24 C17.21724907 18.48881619 8.12534281 9.88323813 0 1 C0 0.67 0 0.34 0 0 Z " fill="#119591" transform="translate(47,223)"/>
<path d="M0 0 C0.45375 0.66 0.9075 1.32 1.375 2 C1.91125 2.66 2.4475 3.32 3 4 C3.66 4 4.32 4 5 4 C5.0825 4.61875 5.165 5.2375 5.25 5.875 C5.4975 6.57625 5.745 7.2775 6 8 C6.93005859 8.44472656 6.93005859 8.44472656 7.87890625 8.8984375 C10.37389894 10.19417956 11.17594271 11.40776708 12.6875 13.75 C15.61462485 17.8886084 18.909362 20.21378151 23.2421875 22.7734375 C23.82226562 23.17820312 24.40234375 23.58296875 25 24 C25 24.66 25 25.32 25 26 C25.73089844 26.26683594 26.46179688 26.53367187 27.21484375 26.80859375 C30.76992891 28.32935248 33.67374259 30.43251424 36.81640625 32.66015625 C38.93571422 33.96055452 40.61981664 34.41146451 43 35 C43.33 35.66 43.66 36.32 44 37 C47.06321638 38.34906187 50.18002074 39.50522007 53.3125 40.68359375 C54.199375 41.11800781 55.08625 41.55242187 56 42 C56.33 42.99 56.66 43.98 57 45 C43.7700598 41.45626602 31.63148975 33.44085137 21 25 C20.2251123 24.38535889 20.2251123 24.38535889 19.43457031 23.75830078 C11.53535873 17.43658753 4.58543677 10.68548716 -2 3 C-1.34 2.67 -0.68 2.34 0 2 C0 1.34 0 0.68 0 0 Z " fill="#208A88" transform="translate(60,254)"/>
<path d="M0 0 C1.23250488 -0.00918457 2.46500977 -0.01836914 3.73486328 -0.02783203 C10.4304401 -0.00503625 16.4118876 0.55486812 22.875 2.25 C24.76802565 2.55936606 26.66369572 2.85334625 28.5625 3.125 C34.4076218 4.06559431 39.97833866 5.61218931 45.6484375 7.296875 C49.36878983 8.39586528 53.10362329 9.34486959 56.875 10.25 C56.875 10.91 56.875 11.57 56.875 12.25 C51.18548852 11.05220811 45.55741959 9.67716592 39.9375 8.1875 C39.27484131 8.0131543 38.61218262 7.83880859 37.92944336 7.65917969 C33.11941407 6.37220704 33.11941407 6.37220704 30.875 5.25 C20.3202901 3.42964256 9.89550827 2.95521971 -0.79125977 3.04418945 C-3.08556066 3.06268591 -5.37945959 3.0646964 -7.67382812 3.06445312 C-19.73505014 2.49140998 -19.73505014 2.49140998 -31.125 5.25 C-33.329364 5.47950319 -35.53892173 5.66075933 -37.75 5.8125 C-38.93851563 5.89628906 -40.12703125 5.98007813 -41.3515625 6.06640625 C-42.26679688 6.12699219 -43.18203125 6.18757812 -44.125 6.25 C-32.48477083 -1.51015278 -13.38723724 0.05571684 0 0 Z " fill="#57797E" transform="translate(171.125,2.75)"/>
<path d="M0 0 C0 3 0 3 -2.1171875 5.3046875 C-3.95034423 7.01321034 -5.78367654 8.72154481 -7.6171875 10.4296875 C-9.97145781 12.96921187 -10.77589414 14.83590494 -12 18 C-15.125 19.3125 -15.125 19.3125 -18 20 C-18 20.99 -18 21.98 -18 23 C-19.79296875 24.46484375 -19.79296875 24.46484375 -22.1875 25.9375 C-24.91910779 27.65708355 -27.37849896 29.31267305 -29.875 31.375 C-32 33 -32 33 -35 33 C-35 33.66 -35 34.32 -35 35 C-40.73895839 40.45201047 -47.0049099 44.20049099 -55 45 C-52.30692101 41.95231631 -48.98422538 39.99576651 -45.5625 37.875 C-35.8239896 31.71317887 -26.7859137 24.938454 -18.3046875 17.12109375 C-16.19643423 15.18078608 -14.04930368 13.3030018 -11.875 11.4375 C-7.71681629 7.822426 -3.84822135 3.94033303 0 0 Z " fill="#29B0AE" transform="translate(257,205)"/>
<path d="M0 0 C0.31934688 4.85552416 -0.54090156 7.87319636 -2.75 12.1875 C-3.26046875 13.21230469 -3.7709375 14.23710938 -4.296875 15.29296875 C-5.97016243 17.95257469 -7.3701485 19.33633307 -10 21 C-10.125 14.25 -10.125 14.25 -9 12 C-9.24621907 10.11515056 -9.56888087 8.23977913 -9.9375 6.375 C-10.13214844 5.37210937 -10.32679688 4.36921875 -10.52734375 3.3359375 C-10.68332031 2.56507812 -10.83929688 1.79421875 -11 1 C-3.375 0 -3.375 0 0 0 Z " fill="#3EA2A1" transform="translate(222,89)"/>
<path d="M0 0 C1.51638376 2.02184501 3.02107691 4.03115718 4.4375 6.125 C6.13520166 8.16224199 7.57140743 8.99506514 10 10 C9.52949219 10.31453125 9.05898438 10.6290625 8.57421875 10.953125 C5.11997567 13.32747014 2.27221496 15.39118801 0 19 C-0.37125 18.2575 -0.7425 17.515 -1.125 16.75 C-3.32362135 13.52535535 -5.67963799 11.99221721 -9 10 C-8.2575 9.46375 -7.515 8.9275 -6.75 8.375 C-3.82325039 5.84735261 -2.01378661 3.28172632 0 0 Z " fill="#21A8A4" transform="translate(44,120)"/>
<path d="M0 0 C12.23173287 -0.1411871 24.4207822 0.22319209 36.640625 0.74462891 C39.78616455 0.87651632 42.93205022 0.99493819 46.078125 1.11328125 C48.08857609 1.19709502 50.09899436 1.28170065 52.109375 1.3671875 C53.51240875 1.41732498 53.51240875 1.41732498 54.94378662 1.46847534 C55.81279602 1.50836578 56.68180542 1.54825623 57.57714844 1.58935547 C58.71721344 1.63598831 58.71721344 1.63598831 59.88031006 1.68356323 C62.24453763 2.03650567 63.92948079 2.82953598 66 4 C43.84291821 4.15717672 21.98045691 3.96721764 0 1 C0 0.67 0 0.34 0 0 Z " fill="#092F33" transform="translate(89,76)"/>
<path d="M0 0 C-0.721875 0.680625 -1.44375 1.36125 -2.1875 2.0625 C-5.23455693 5.09214518 -7.57207954 8.46217304 -10 12 C-10.99 11.01 -11.98 10.02 -13 9 C-16.4094393 10.65864615 -17.80198686 11.59572317 -19.5 15.0625 C-21.29659825 18.58083824 -22.38077906 18.79359302 -26 20 C-26.66 20.99 -27.32 21.98 -28 23 C-28.66 23 -29.32 23 -30 23 C-30 22.34 -30 21.68 -30 21 C-31.32 20.67 -32.64 20.34 -34 20 C-33.16339844 19.47792969 -32.32679688 18.95585937 -31.46484375 18.41796875 C-30.2882017 17.67584221 -29.11249647 16.93222921 -27.9375 16.1875 C-27.31496338 15.79312744 -26.69242676 15.39875488 -26.05102539 14.99243164 C-20.50589195 11.42824646 -15.23377145 7.54470336 -10.06420898 3.45581055 C-6.62392095 0.82588684 -4.39293577 -0.65603389 0 0 Z " fill="#1BA8AC" transform="translate(211,195)"/>
<path d="M0 0 C4.19362866 0.38123897 8.27024036 0.84985405 12.3984375 1.69921875 C26.17562825 4.51790548 39.97095986 4.73052571 54 5 C54 5.33 54 5.66 54 6 C51.89751231 6.34376441 49.79287058 6.67435729 47.6875 7 C46.51574219 7.185625 45.34398437 7.37125 44.13671875 7.5625 C35.13404578 8.6750765 26.77387004 7.84845621 17.9375 6 C10.84662396 4.52294208 4.2535983 3.7171244 -3 4 C-3.33 3.34 -3.66 2.68 -4 2 C-2.68 2 -1.36 2 0 2 C0 1.34 0 0.68 0 0 Z " fill="#129091" transform="translate(96,264)"/>
<path d="M0 0 C6.44994917 6.2418863 12.4481036 12.94997282 18 20 C17.34 20 16.68 20 16 20 C14.66666667 23 14.66666667 23 16 26 C15.67 26.99 15.34 27.98 15 29 C0 7.72727273 0 7.72727273 0 0 Z " fill="#2C8F91" transform="translate(36,218)"/>
<path d="M0 0 C-2.39485701 0.9579428 -4.7903779 1.91304015 -7.19140625 2.85546875 C-8.86602034 3.53789146 -10.52733502 4.25744668 -12.15234375 5.05078125 C-29.5426814 13.19562294 -52.36514812 12.32000164 -71 10 C-71 9.67 -71 9.34 -71 9 C-70.07272095 9.01571045 -70.07272095 9.01571045 -69.12670898 9.03173828 C-56.88331501 9.21127018 -45.08457614 9.15655113 -33 7 C-32.28602051 6.87689453 -31.57204102 6.75378906 -30.83642578 6.62695312 C-22.85614058 5.90867742 -22.85614058 5.90867742 -16 3 C-14.33382885 2.95936168 -12.66611905 2.957279 -11 3 C-11 2.34 -11 1.68 -11 1 C-3.375 -1.125 -3.375 -1.125 0 0 Z " fill="#1E9796" transform="translate(185,252)"/>
<path d="M0 0 C1.52949845 3.05899689 0.40731449 5.29328671 -0.375 8.5625 C-0.65085937 9.73941406 -0.92671875 10.91632813 -1.2109375 12.12890625 C-2 15 -2 15 -3 16 C-4.17223105 23.61950183 -4.21941018 31.25956239 -4.24023438 38.95410156 C-4.24988759 41.10001191 -4.28097479 43.24494021 -4.3125 45.390625 C-4.37540245 53.88074876 -3.56296965 61.64357283 -1.64746094 69.92138672 C-1 73 -1 73 -1 77 C-1.66 77 -2.32 77 -3 77 C-5.68063888 65.49686362 -6.473589 54.46980732 -6.39111328 42.67260742 C-6.37499606 39.93683195 -6.39107487 37.20252864 -6.41015625 34.46679688 C-6.44498545 7.37487579 -6.44498545 7.37487579 0 0 Z " fill="#57797F" transform="translate(27,125)"/>
<path d="M0 0 C0.66 0 1.32 0 2 0 C2.45375 0.78375 2.9075 1.5675 3.375 2.375 C5.07651113 5.1235949 6.04519084 5.87921032 9 7 C9 7.66 9 8.32 9 9 C8.030625 9.639375 7.06125 10.27875 6.0625 10.9375 C2.75744775 12.71061007 2.75744775 12.71061007 2 16 C1.34 16 0.68 16 0 16 C-0.061875 15.38125 -0.12375 14.7625 -0.1875 14.125 C-0.82051688 11.74397155 -0.82051688 11.74397155 -3.4375 10.8125 C-4.283125 10.544375 -5.12875 10.27625 -6 10 C-6.66 9.67 -7.32 9.34 -8 9 C-8 8.34 -8 7.68 -8 7 C-7.236875 6.773125 -6.47375 6.54625 -5.6875 6.3125 C-2.44095547 4.72697825 -1.71197206 3.09785421 0 0 Z " fill="#3CBDB9" transform="translate(166,26)"/>
<path d="M0 0 C0.66 0 1.32 0 2 0 C1.42105792 4.51574825 0.21849943 8.57727662 -1.28125 12.8515625 C-1.96180932 14.88584306 -2.50890482 16.9128455 -3 19 C-5.64 19 -8.28 19 -11 19 C-10.67 15.7 -10.34 12.4 -10 9 C-9.01 9 -8.02 9 -7 9 C-6.67 8.34 -6.34 7.68 -6 7 C-5.360625 6.9175 -4.72125 6.835 -4.0625 6.75 C-3.381875 6.5025 -2.70125 6.255 -2 6 C-0.6954344 3.00384054 -0.6954344 3.00384054 0 0 Z " fill="#0AA9A7" transform="translate(178,104)"/>
<path d="M0 0 C-0.886875 0.433125 -1.77375 0.86625 -2.6875 1.3125 C-9.18954905 4.30389219 -9.18954905 4.30389219 -13 10 C-14.98 10 -16.96 10 -19 10 C-19.0825 10.78375 -19.165 11.5675 -19.25 12.375 C-19.4975 13.24125 -19.745 14.1075 -20 15 C-21.32467746 15.6837045 -22.65863633 16.34964186 -24 17 C-24.495 18.2684375 -24.495 18.2684375 -25 19.5625 C-25.33 20.366875 -25.66 21.17125 -26 22 C-28 22.6875 -28 22.6875 -30 23 C-30.66 23.66 -31.32 24.32 -32 25 C-31.51078804 20.76342445 -29.14045649 18.89877719 -26.125 16.0625 C-22.75619907 12.88521982 -20.2866186 10.01849541 -18 6 C-14.30647025 2.4090683 -10.96200957 1.21709669 -6 0 C-3.50907189 -1.24546405 -2.58919267 -0.7767578 0 0 Z " fill="#16B5B8" transform="translate(278,196)"/>
<path d="M0 0 C0.33 0 0.66 0 1 0 C1.01401855 0.93791382 1.01401855 0.93791382 1.02832031 1.89477539 C1.30285665 16.7937548 2.44428483 31.338227 4.62792969 46.06274414 C5.83782681 54.48040912 6.22756255 62.50106901 6 71 C5.67 71 5.34 71 5 71 C4.505 60.605 4.505 60.605 4 50 C3.34 50 2.68 50 2 50 C-0.1986275 33.31398775 -0.21874537 16.79291363 0 0 Z " fill="#55BEBE" transform="translate(144,132)"/>
<path d="M0 0 C-3.54882233 3.54882233 -9.28326602 3.03831148 -14.12109375 3.11352539 C-15.55990555 3.11337017 -16.99872472 3.10790892 -18.4375 3.09765625 C-19.20304199 3.0962413 -19.96858398 3.09482635 -20.75732422 3.09336853 C-23.17159142 3.08782853 -25.58576144 3.07528779 -28 3.0625 C-29.64973823 3.05747723 -31.29947794 3.05291569 -32.94921875 3.04882812 C-36.96618255 3.03787886 -40.98307487 3.02065666 -45 3 C-45 2.34 -45 1.68 -45 1 C-40.84157169 0.85449758 -36.68304681 0.71226076 -32.52441406 0.57275391 C-31.11650752 0.52509873 -29.70862833 0.47662679 -28.30078125 0.42724609 C-18.86163259 0.09687589 -9.44624012 -0.06677099 0 0 Z " fill="#0B2F35" transform="translate(206,78)"/>
<path d="M0 0 C2.45605371 2.55274874 2.98802939 3.85890643 3.29296875 7.453125 C3.24076172 9.33257812 3.24076172 9.33257812 3.1875 11.25 C3.14689453 13.14492187 3.14689453 13.14492187 3.10546875 15.078125 C3.07066406 16.04234375 3.03585938 17.0065625 3 18 C1.02 18 -0.96 18 -3 18 C-3 17.01 -3 16.02 -3 15 C-2.34 15 -1.68 15 -1 15 C-1 14.01 -1 13.02 -1 12 C-1.66 12 -2.32 12 -3 12 C-3.34833144 7.12335991 -2.41685712 4.22949995 0 0 Z " fill="#06BDB9" transform="translate(64,96)"/>
<path d="M0 0 C3.65999866 2.40789386 7.24768319 4.8904078 10.8125 7.4375 C15.37009554 10.64648988 20.06610882 13.4138783 25 16 C24.34 16.66 23.68 17.32 23 18 C17.97061594 15.32642765 13.41073771 12.63237223 9 9 C8.01 8.67 7.02 8.34 6 8 C6 9.32 6 10.64 6 12 C5.34 12 4.68 12 4 12 C4 11.34 4 10.68 4 10 C3.34 10 2.68 10 2 10 C1 7 1 7 1 4 C0.6937566 2.66018514 0.36548445 1.32488113 0 0 Z " fill="#168D92" transform="translate(56,240)"/>
<path d="M0 0 C0.33 0 0.66 0 1 0 C0.77546647 10.10400905 -7.02221972 18.35807576 -13 26 C-14 23 -14 23 -13 20 C-12.34 19.67 -11.68 19.34 -11 19 C-10.15688424 17.12816413 -10.15688424 17.12816413 -10 15 C-10.66 14.01 -11.32 13.02 -12 12 C-11.071875 11.95875 -10.14375 11.9175 -9.1875 11.875 C-5.76956836 11.32719644 -5.76956836 11.32719644 -4.3125 8.25 C-3.879375 7.1775 -3.44625 6.105 -3 5 C-2.0436126 3.30792999 -1.05589069 1.63183107 0 0 Z " fill="#21AFAF" transform="translate(290,232)"/>
<path d="M0 0 C0.66 0.33 1.32 0.66 2 1 C-1.46546055 5.6951401 -5.00704705 8.44897434 -9.92578125 11.5546875 C-12.49485963 13.34481744 -14.12029432 15.51610321 -16 18 C-16.804375 18.474375 -17.60875 18.94875 -18.4375 19.4375 C-20.85642416 20.91245375 -21.96434557 22.01835266 -23.6875 24.1875 C-24.450625 25.115625 -25.21375 26.04375 -26 27 C-26.66 27 -27.32 27 -28 27 C-23.48808857 16.06435025 -9.1664382 6.80570817 0 0 Z " fill="#2A484E" transform="translate(73,33)"/>
<path d="M0 0 C0 0.99 0 1.98 0 3 C-0.95390625 3.54398437 -1.9078125 4.08796875 -2.890625 4.6484375 C-6.64195986 7.48550231 -6.85733552 8.84865501 -7.49609375 13.296875 C-7.57988281 14.06515625 -7.66367188 14.8334375 -7.75 15.625 C-8.795 23.795 -8.795 23.795 -11 26 C-11.6425235 28.06874034 -11.6425235 28.06874034 -12 30 C-12.66 30 -13.32 30 -14 30 C-14 31.32 -14 32.64 -14 34 C-14.66 34 -15.32 34 -16 34 C-15.566875 32.7625 -15.13375 31.525 -14.6875 30.25 C-12.34905306 23.2124938 -9.98751618 16.01669674 -9.875 8.5625 C-9 5 -9 5 -6.94140625 3.40234375 C-4.66675099 2.12839486 -2.40240875 1.00949701 0 0 Z " fill="#31A0A1" transform="translate(211,116)"/>
<path d="M0 0 C-19.09851812 8.84111176 -42.46003268 6.23898646 -63 6 C-63 5.67 -63 5.34 -63 5 C-61.68733154 4.970271 -61.68733154 4.970271 -60.34814453 4.93994141 C-44.55479811 4.56425528 -13.15434208 -4.31717394 0 0 Z " fill="#749496" transform="translate(213,325)"/>
<path d="M0 0 C3.87975756 1.49998062 7.61847542 3.21542775 11.375 5 C15.88656309 7.09959236 20.15774649 8.87389453 25 10 C25 10.33 25 10.66 25 11 C23.3745692 10.85904936 21.74965949 10.71207913 20.125 10.5625 C19.22007813 10.48128906 18.31515625 10.40007812 17.3828125 10.31640625 C15 10 15 10 13 9 C13.33 9.99 13.66 10.98 14 12 C11 12 11 12 8.30078125 9.62890625 C7.29691517 8.61440318 6.30108274 7.59190164 5.3125 6.5625 C4.80138672 6.04623047 4.29027344 5.52996094 3.76367188 4.99804688 C0 1.15397613 0 1.15397613 0 0 Z " fill="#389999" transform="translate(47,223)"/>
<path d="M0 0 C-0.020625 0.804375 -0.04125 1.60875 -0.0625 2.4375 C-0.29633621 4.93354885 -0.29633621 4.93354885 1 6 C1.04092937 8.33297433 1.04241723 10.66705225 1 13 C-1.31 13.33 -3.62 13.66 -6 14 C-5.85769192 12.58297487 -5.71099254 11.1663904 -5.5625 9.75 C-5.48128906 8.96109375 -5.40007813 8.1721875 -5.31640625 7.359375 C-5.02048007 5.15271556 -4.70573121 3.11251991 -4 1 C-2 0 -2 0 0 0 Z " fill="#04C1C1" transform="translate(68,176)"/>
<path d="M0 0 C0.99 0.66 1.98 1.32 3 2 C2.67 2.66 2.34 3.32 2 4 C2.99 4.33 3.98 4.66 5 5 C4.67 6.65 4.34 8.3 4 10 C2.02 10 0.04 10 -2 10 C-1.34 12.31 -0.68 14.62 0 17 C-1.65 17 -3.3 17 -5 17 C-4.54810561 14.91526053 -4.08823175 12.83224964 -3.625 10.75 C-3.24214844 9.00976562 -3.24214844 9.00976562 -2.8515625 7.234375 C-2.14203595 4.53947599 -1.36903611 2.40474168 0 0 Z " fill="#0BA4A6" transform="translate(194,151)"/>
<path d="M0 0 C-0.66 0.66 -1.32 1.32 -2 2 C0.31 2.33 2.62 2.66 5 3 C5 3.33 5 3.66 5 4 C0.59085217 5.10228696 -3.48382401 5.07654536 -8 5 C-8 4.67 -8 4.34 -8 4 C-14.27 3.67 -20.54 3.34 -27 3 C-27 2.67 -27 2.34 -27 2 C-24.00051609 1.66134859 -21.00055074 1.32894927 -18 1 C-17.16082031 0.90460938 -16.32164062 0.80921875 -15.45703125 0.7109375 C-10.26859055 0.14785091 -5.21873039 -0.09664316 0 0 Z " fill="#47666A" transform="translate(248,73)"/>
<path d="M0 0 C-4.26520509 2.84347006 -6.20259062 3.12070905 -11.3203125 3.09765625 C-12.57714844 3.09443359 -13.83398438 3.09121094 -15.12890625 3.08789062 C-16.44761719 3.07951172 -17.76632813 3.07113281 -19.125 3.0625 C-20.46484211 3.05748489 -21.804686 3.05292201 -23.14453125 3.04882812 C-26.42973206 3.03701086 -29.71484397 3.02053617 -33 3 C-33 2.67 -33 2.34 -33 2 C-21.9252571 0.33059057 -11.1952557 -0.24939926 0 0 Z " fill="#133235" transform="translate(243,76)"/>
<path d="M0 0 C1.91539047 4.96260257 3.60961435 9.86626838 5 15 C4.01 15 3.02 15 2 15 C-0.00691802 10.06632653 -1 7.44479395 -1 2 C-7.6 2 -14.2 2 -21 2 C-21 1.67 -21 1.34 -21 1 C-13.96094956 0.06145994 -7.09727428 -0.10808032 0 0 Z " fill="#5FB0AE" transform="translate(248,87)"/>
<path d="M0 0 C0 0.99 0 1.98 0 3 C-0.99 3 -1.98 3 -3 3 C-3 3.66 -3 4.32 -3 5 C-8.73895839 10.45201047 -15.0049099 14.20049099 -23 15 C-20.19661257 11.79612865 -16.6353014 9.73438354 -13.0625 7.5 C-8.27335327 4.50582305 -8.27335327 4.50582305 -3.68359375 1.21875 C-2 0 -2 0 0 0 Z " fill="#38ADB1" transform="translate(225,235)"/>
<path d="M0 0 C2.31 0 4.62 0 7 0 C6.52343588 1.79236067 6.04366502 3.58386897 5.5625 5.375 C5.29566406 6.37273437 5.02882812 7.37046875 4.75390625 8.3984375 C4 11 4 11 3 13 C1.68 12.67 0.36 12.34 -1 12 C-0.67 11.01 -0.34 10.02 0 9 C0.06740865 7.43881572 0.08514456 5.8749748 0.0625 4.3125 C0.05347656 3.50425781 0.04445312 2.69601563 0.03515625 1.86328125 C0.02355469 1.24839844 0.01195312 0.63351563 0 0 Z " fill="#039E9D" transform="translate(213,92)"/>
<path d="M0 0 C3.79255672 0.08058849 7.58347092 0.19345317 11.375 0.3125 C12.45523438 0.33505859 13.53546875 0.35761719 14.6484375 0.38085938 C15.6796875 0.41630859 16.7109375 0.45175781 17.7734375 0.48828125 C18.72653809 0.51446533 19.67963867 0.54064941 20.66162109 0.56762695 C21.43328613 0.71031006 22.20495117 0.85299316 23 1 C23.66 1.99 24.32 2.98 25 4 C17.0395089 4.20382481 9.66942342 4.30082703 2 2 C1.34 1.34 0.68 0.68 0 0 Z " fill="#0F3537" transform="translate(56,71)"/>
<path d="M0 0 C0.33 0 0.66 0 1 0 C0.39174965 4.34464536 -0.26167392 8.67551867 -1 13 C-0.34 13 0.32 13 1 13 C1.33 11.68 1.66 10.36 2 9 C1.67 11.31 1.34 13.62 1 16 C0.34 16 -0.32 16 -1 16 C-1 16.99 -1 17.98 -1 19 C0.98 19 2.96 19 5 19 C5.33 17.68 5.66 16.36 6 15 C6 16.65 6 18.3 6 20 C3.03 20 0.06 20 -3 20 C-4.15367696 15.8313806 -3.75762651 13.0210365 -2.625 8.875 C-2.34914062 7.84117188 -2.07328125 6.80734375 -1.7890625 5.7421875 C-1.23467429 3.81555125 -0.63397741 1.90193223 0 0 Z " fill="#24BBBA" transform="translate(62,95)"/>
<path d="M0 0 C1.33900671 3.34751677 0.62569692 5.4539291 -0.453125 8.78515625 C-1.59727033 13.41894485 -1.70355218 18.24903359 -2 23 C-2.33 23 -2.66 23 -3 23 C-3.33 19.7 -3.66 16.4 -4 13 C-4.33 15.97 -4.66 18.94 -5 22 C-5.33 22 -5.66 22 -6 22 C-6.28307925 14.75002578 -5.50974035 8.09038772 -4 1 C-3.67 2.32 -3.34 3.64 -3 5 C-2.34 5 -1.68 5 -1 5 C-0.67 3.35 -0.34 1.7 0 0 Z " fill="#BFE9EB" transform="translate(74,92)"/>
<path d="M0 0 C0 0.66 0 1.32 0 2 C0.66 2.33 1.32 2.66 2 3 C1.09650406 4.01191545 0.17659153 5.00918926 -0.75 6 C-1.51570313 6.8353125 -1.51570313 6.8353125 -2.296875 7.6875 C-4 9 -4 9 -8 9 C-8.36190476 3.57142857 -8.36190476 3.57142857 -6.8125 1.125 C-4.43963721 -0.34781139 -2.74086056 -0.22223194 0 0 Z " fill="#10AAAF" transform="translate(274,256)"/>
<path d="M0 0 C0.28875 0.639375 0.5775 1.27875 0.875 1.9375 C1.82823451 4.15206079 1.82823451 4.15206079 4 5 C4 5.66 4 6.32 4 7 C2.04072937 8.7143618 0.04119788 10.38405168 -2 12 C-3.70884005 10.37660195 -5.37446717 8.70680947 -7 7 C-7 5 -7 5 -4.625 2.375 C-2 0 -2 0 0 0 Z " fill="#3BBEBD" transform="translate(293,109)"/>
<path d="M0 0 C2.2389958 6.7169874 -3.79551819 15.72655094 -6.85742188 21.91479492 C-8.21898509 24.62017092 -9.60219896 27.31316054 -11 30 C-12.00776049 26.85497566 -12.11131266 26.24912833 -10.6875 23.0625 C-10.130625 22.051875 -9.57375 21.04125 -9 20 C-8.31471955 18.34089996 -7.64108137 16.67667436 -7 15 C-6.34 15 -5.68 15 -5 15 C-5.04125 14.071875 -5.0825 13.14375 -5.125 12.1875 C-5 9 -5 9 -3 6 C-2.835 5.13375 -2.67 4.2675 -2.5 3.375 C-2.335 2.59125 -2.17 1.8075 -2 1 C-1.34 0.67 -0.68 0.34 0 0 Z " fill="#3DB7B8" transform="translate(303,206)"/>
<path d="M0 0 C0.66 0 1.32 0 2 0 C2.66 0.99 3.32 1.98 4 3 C4.99 3.33 5.98 3.66 7 4 C7 4.66 7 5.32 7 6 C6.360625 6.268125 5.72125 6.53625 5.0625 6.8125 C2.66868314 7.88667752 2.66868314 7.88667752 2 11 C0 11 0 11 -2.625 8.625 C-5 6 -5 6 -5 4 C-4.360625 3.71125 -3.72125 3.4225 -3.0625 3.125 C-0.84793921 2.17176549 -0.84793921 2.17176549 0 0 Z " fill="#3DB9B3" transform="translate(175,132)"/>
<path d="M0 0 C1.52949845 3.05899689 0.40731449 5.29328671 -0.375 8.5625 C-0.65085937 9.73941406 -0.92671875 10.91632813 -1.2109375 12.12890625 C-2 15 -2 15 -3 16 C-3.400383 18.85528607 -3.7518227 21.69736487 -4.0625 24.5625 C-4.15337891 25.36880859 -4.24425781 26.17511719 -4.33789062 27.00585938 C-4.56247449 29.00347377 -4.78173236 31.0016856 -5 33 C-5.33 33 -5.66 33 -6 33 C-7.04294425 7.93071034 -7.04294425 7.93071034 0 0 Z " fill="#2E585E" transform="translate(27,125)"/>
<path d="M0 0 C8.75861562 0.79623778 17.35560508 2.42197613 26 4 C26 4.33 26 4.66 26 5 C19.21114629 5.09187922 12.72161665 5.03409487 6 4 C2.99778227 3.91754814 0.00246906 3.93872512 -3 4 C-3.33 3.34 -3.66 2.68 -4 2 C-2.68 2 -1.36 2 0 2 C0 1.34 0 0.68 0 0 Z " fill="#28999A" transform="translate(96,264)"/>
<path d="M0 0 C1.98 1.65 3.96 3.3 6 5 C4.35 6.98 2.7 8.96 1 11 C-1.04119788 9.38405168 -3.04072937 7.7143618 -5 6 C-5 5.34 -5 4.68 -5 4 C-4.01 3.67 -3.02 3.34 -2 3 C-1.34 2.01 -0.68 1.02 0 0 Z " fill="#45B4AF" transform="translate(175,174)"/>
<path d="M0 0 C0.33 0 0.66 0 1 0 C1 4.62 1 9.24 1 14 C-1.31 13.67 -3.62 13.34 -6 13 C-6 13.99 -6 14.98 -6 16 C-5.01 15.67 -4.02 15.34 -3 15 C-2.67 18.3 -2.34 21.6 -2 25 C-5.8770455 19.830606 -7.29517577 17.49386689 -7 11 C-4.69 11 -2.38 11 0 11 C0 7.37 0 3.74 0 0 Z " fill="#48999B" transform="translate(260,76)"/>
<path d="M0 0 C2.02045442 0.60183749 4.02111039 1.27306096 6 2 C6.33 2.66 6.66 3.32 7 4 C10.06321638 5.34906187 13.18002074 6.50522007 16.3125 7.68359375 C17.6428125 8.33521484 17.6428125 8.33521484 19 9 C19.33 9.99 19.66 10.98 20 12 C12.04199322 9.707015 5.18082279 6.05100513 -2 2 C-1.34 1.34 -0.68 0.68 0 0 Z " fill="#349592" transform="translate(97,287)"/>
<path d="M0 0 C-0.721875 0.680625 -1.44375 1.36125 -2.1875 2.0625 C-5.23455693 5.09214518 -7.57207954 8.46217304 -10 12 C-12 10 -12 10 -12.5625 7.6875 C-11.90466946 4.54453189 -11.29196844 4.08483237 -8.8125 2.1875 C-5.78455487 0.21810479 -3.67354957 -0.55659842 0 0 Z " fill="#07AFAC" transform="translate(211,195)"/>
<path d="M0 0 C-0.98828125 2.48046875 -0.98828125 2.48046875 -3 5 C-5.94093052 5.37859559 -8.27644958 5.47775614 -11.1875 5.3125 C-11.93708984 5.28994141 -12.68667969 5.26738281 -13.45898438 5.24414062 C-15.3068447 5.18529157 -17.15367667 5.09560938 -19 5 C-12.6423752 0.14532834 -7.85768378 -0.27463749 0 0 Z " fill="#3FBCBE" transform="translate(226,190)"/>
<path d="M0 0 C4.875 4.75 4.875 4.75 6 7 C5.525625 7.45375 5.05125 7.9075 4.5625 8.375 C2.90972192 9.93258204 2.90972192 9.93258204 2 12 C1.34 12 0.68 12 0 12 C-0.33 11.01 -0.66 10.02 -1 9 C-2.99665314 7.31461399 -2.99665314 7.31461399 -5 6 C-4.360625 5.566875 -3.72125 5.13375 -3.0625 4.6875 C-0.73253997 3.08760823 -0.73253997 3.08760823 0 0 Z " fill="#49BDC2" transform="translate(150,46)"/>
<path d="M0 0 C1.2065625 0.0309375 1.2065625 0.0309375 2.4375 0.0625 C3.90476798 3.87739674 2.87086419 6.35261622 1.4375 10.0625 C1.1075 10.0625 0.7775 10.0625 0.4375 10.0625 C0.1075 8.0825 -0.2225 6.1025 -0.5625 4.0625 C-1.5525 6.0425 -2.5425 8.0225 -3.5625 10.0625 C-4.5525 10.0625 -5.5425 10.0625 -6.5625 10.0625 C-6.08699439 8.58215236 -5.60698784 7.10324979 -5.125 5.625 C-4.85816406 4.80128906 -4.59132813 3.97757812 -4.31640625 3.12890625 C-3.20336342 0.07813082 -3.20336342 0.07813082 0 0 Z " fill="#32B9BC" transform="translate(69.5625,82.9375)"/>
<path d="M0 0 C3.96 0 7.92 0 12 0 C11.3503125 1.918125 11.3503125 1.918125 10.6875 3.875 C9.01494383 8.88470395 7.49130021 13.93380993 6 19 C5.67 19 5.34 19 5 19 C4.40755479 12.33499135 6.51677155 7.13047025 9 1 C8.01 1.495 8.01 1.495 7 2 C4.6670134 2.04022391 2.33293334 2.04320247 0 2 C0 1.34 0 0.68 0 0 Z " fill="#39A1A1" transform="translate(160,92)"/>
<path d="M0 0 C3.96 0 7.92 0 12 0 C12 0.99 12 1.98 12 3 C9.8100858 5.1899142 9.03659495 5.73972043 6 6 C3.3125 4.75 3.3125 4.75 1 3 C0.67 2.01 0.34 1.02 0 0 Z " fill="#06A7A8" transform="translate(191,163)"/>
<path d="M0 0 C0.99 0.66 1.98 1.32 3 2 C5.27912938 2.45394552 5.27912938 2.45394552 7.6875 2.625 C8.89986328 2.73714844 8.89986328 2.73714844 10.13671875 2.8515625 C10.75160156 2.90054688 11.36648437 2.94953125 12 3 C12 3.33 12 3.66 12 4 C5.4 4 -1.2 4 -8 4 C-8.33 4.66 -8.66 5.32 -9 6 C-9 4.35 -9 2.7 -9 1 C-9.99 0.67 -10.98 0.34 -12 0 C-7.21075496 -1.69032178 -4.53661911 -2.52034395 0 0 Z " fill="#294B52" transform="translate(94,75)"/>
<path d="M0 0 C1.32 0 2.64 0 4 0 C4 1.65 4 3.3 4 5 C9.28 5 14.56 5 20 5 C20 5.33 20 5.66 20 6 C13.32964627 7.13537936 6.59075233 7.87457064 0 6 C0 4.02 0 2.04 0 0 Z " fill="#274A4E" transform="translate(206,71)"/>
<path d="M0 0 C-2.24659907 1.79607786 -4.49703789 3.58693483 -6.75 5.375 C-7.70132813 6.13683594 -7.70132813 6.13683594 -8.671875 6.9140625 C-9.290625 7.40390625 -9.909375 7.89375 -10.546875 8.3984375 C-11.11245117 8.84880371 -11.67802734 9.29916992 -12.26074219 9.76318359 C-14.09637036 11.06853064 -15.9636312 12.04423303 -18 13 C-17.8125 11.1875 -17.8125 11.1875 -17 9 C-12.82142857 6 -12.82142857 6 -10 6 C-9.67 5.01 -9.34 4.02 -9 3 C-8.34 3 -7.68 3 -7 3 C-7 2.01 -7 1.02 -7 0 C-3.98968256 -0.93423645 -3.13349732 -1.04449911 0 0 Z " fill="#2CACAE" transform="translate(234,221)"/>
<path d="M0 0 C8.27916529 1.16290162 8.27916529 1.16290162 10.9375 4.25 C12.05565878 7.14405801 13.10201882 10.02975456 14 13 C13.01 12.67 12.02 12.34 11 12 C10.67 10.02 10.34 8.04 10 6 C8.02 6.33 6.04 6.66 4 7 C3.67 6.01 3.34 5.02 3 4 C2.01979625 2.9805881 1.02196992 1.97753644 0 1 C0 0.67 0 0.34 0 0 Z " fill="#3DA2A4" transform="translate(267,114)"/>
<path d="M0 0 C4 5 4 5 4 8 C3.34 8 2.68 8 2 8 C1.67 8.99 1.34 9.98 1 11 C5.29 11.33 9.58 11.66 14 12 C14 12.66 14 13.32 14 14 C7.07 13.505 7.07 13.505 0 13 C0 8.71 0 4.42 0 0 Z " fill="#2EB7B5" transform="translate(72,103)"/>
<path d="M0 0 C0.5878125 0.6496875 0.5878125 0.6496875 1.1875 1.3125 C3.27790934 3.25874318 5.55189548 4.54437028 8 6 C8 6.33 8 6.66 8 7 C6.41632253 6.85795259 4.83306682 6.71119847 3.25 6.5625 C2.36828125 6.48128906 1.4865625 6.40007812 0.578125 6.31640625 C-3.99095023 5.75565611 -3.99095023 5.75565611 -6 5 C-6.33 4.01 -6.66 3.02 -7 2 C-4.69 1.34 -2.38 0.68 0 0 Z " fill="#1B9492" transform="translate(129,297)"/>
<path d="M0 0 C0.97110486 3.02121511 1.13617383 5.00463263 0 8 C-0.99 8.495 -0.99 8.495 -2 9 C-2.65213292 11.02463255 -2.65213292 11.02463255 -3 13 C-2.34 13 -1.68 13 -1 13 C-1.33 13.99 -1.66 14.98 -2 16 C-2.99 15.67 -3.98 15.34 -5 15 C-5.66 16.32 -6.32 17.64 -7 19 C-7.66 19 -8.32 19 -9 19 C-7.64191648 13.83928262 -5.15031499 9.74292191 -2.33984375 5.26953125 C-0.87096434 2.96285499 -0.87096434 2.96285499 0 0 Z " fill="#2CBAB8" transform="translate(87,117)"/>
<path d="M0 0 C0.66 0.33 1.32 0.66 2 1 C1.443125 2.175625 0.88625 3.35125 0.3125 4.5625 C-2.64931932 11.18678408 -4.78196585 18.10045936 -7 25 C-7.33 25 -7.66 25 -8 25 C-7.41632611 18.69632197 -5.95928381 13.01339937 -4 7 C-3.34 7 -2.68 7 -2 7 C-2 5.35 -2 3.7 -2 2 C-1.34 2 -0.68 2 0 2 C0 1.34 0 0.68 0 0 Z " fill="#3C6164" transform="translate(36,99)"/>
<path d="M0 0 C0.33 0.99 0.66 1.98 1 3 C2.76481626 3.74085455 2.76481626 3.74085455 4.9375 4.0625 C6.14019531 4.29259766 6.14019531 4.29259766 7.3671875 4.52734375 C8.23601562 4.68332031 9.10484375 4.83929688 10 5 C11.85467528 5.37247634 13.70885973 5.74740661 15.5625 6.125 C17.04147377 6.41764321 18.52056973 6.70967339 20 7 C20 9.31 20 11.62 20 14 C19.67 14 19.34 14 19 14 C19 12.02 19 10.04 19 8 C18.38253906 8.03480469 17.76507813 8.06960937 17.12890625 8.10546875 C10.81455703 8.30729726 5.84551745 7.37209404 0 5 C0 3.35 0 1.7 0 0 Z " fill="#50BCBB" transform="translate(87,84)"/>
<path d="M0 0 C-3.03260897 2.02173932 -4.08690037 2.29338438 -7.5625 2.5625 C-10.90657232 2.81460438 -10.90657232 2.81460438 -14 4 C-16.204364 4.22950319 -18.41392173 4.41075933 -20.625 4.5625 C-21.81351563 4.64628906 -23.00203125 4.73007813 -24.2265625 4.81640625 C-25.14179688 4.87699219 -26.05703125 4.93757812 -27 5 C-19.15006173 -0.23329218 -9.14048684 -0.16619067 0 0 Z " fill="#658285" transform="translate(154,4)"/>
<path d="M0 0 C0.33 0 0.66 0 1 0 C0.91304042 2.60578866 0.80618592 5.2081279 0.6875 7.8125 C0.65366211 8.91948242 0.65366211 8.91948242 0.61914062 10.04882812 C0.34813262 15.49362528 0.34813262 15.49362528 -1.375 18 C-3.63024595 19.38784366 -5.40853641 19.21011867 -8 19 C-7.21238281 18.32582031 -6.42476562 17.65164062 -5.61328125 16.95703125 C-2.54800808 13.48855324 -1.98930494 11.20292781 -1.1875 6.6875 C-0.95417969 5.43324219 -0.72085938 4.17898437 -0.48046875 2.88671875 C-0.32191406 1.93410156 -0.16335937 0.98148437 0 0 Z " fill="#32B0AD" transform="translate(139,127)"/>
<path d="M0 0 C0.33 0 0.66 0 1 0 C1.33 3.96 1.66 7.92 2 12 C2.66 12 3.32 12 4 12 C4 13.98 4 15.96 4 18 C2.68 18 1.36 18 0 18 C0 12.06 0 6.12 0 0 Z " fill="#083A44" transform="translate(261,75)"/>
<path d="M0 0 C-2.37386666 0.94954666 -4.74811383 1.89786755 -7.125 2.83984375 C-9.00959513 3.60033934 -10.88523039 4.38351601 -12.75 5.19140625 C-14.049375 5.74634766 -14.049375 5.74634766 -15.375 6.3125 C-16.16648438 6.65925781 -16.95796875 7.00601562 -17.7734375 7.36328125 C-20.28044343 8.08019698 -21.57241392 7.85907726 -24 7 C-15.738041 2.40774487 -15.738041 2.40774487 -11 3 C-11 2.34 -11 1.68 -11 1 C-3.375 -1.125 -3.375 -1.125 0 0 Z " fill="#34A5A4" transform="translate(185,252)"/>
<path d="M0 0 C0 3 0 3 -2.4375 5.625 C-6.26657973 8.68275432 -10.23369617 8.88349035 -15 9 C-12.4011345 5.96343083 -9.37928272 4.53836261 -5.8125 2.8125 C-4.72582031 2.28269531 -3.63914063 1.75289062 -2.51953125 1.20703125 C-1.68808594 0.80871094 -0.85664063 0.41039062 0 0 Z " fill="#37AAA7" transform="translate(176,216)"/>
<path d="M0 0 C0.66 0 1.32 0 2 0 C2 0.99 2 1.98 2 3 C2.66 3 3.32 3 4 3 C3.44894091 6.9492568 2.61064629 10.34920174 1 14 C0.34 14 -0.32 14 -1 14 C-1.08333357 9.1666528 -0.95261487 4.76307437 0 0 Z " fill="#D2F0F2" transform="translate(72,83)"/>
<path d="M0 0 C4.21814817 3.9700218 7.61227103 8.30840284 11 13 C10.01 13.495 10.01 13.495 9 14 C8.67 13.34 8.34 12.68 8 12 C7.34 12.66 6.68 13.32 6 14 C4.9923048 12.2335343 3.99408286 10.46166177 3 8.6875 C2.443125 7.70136719 1.88625 6.71523437 1.3125 5.69921875 C0 3 0 3 0 0 Z " fill="#2D8F94" transform="translate(36,218)"/>
<path d="M0 0 C0.99 0 1.98 0 3 0 C3.226875 0.78375 3.45375 1.5675 3.6875 2.375 C5.12500116 6.34524129 6.97633757 9.92141249 8.9765625 13.6328125 C10 16 10 16 10 20 C7.20356382 16.57544124 5.25995711 12.81870229 3.3125 8.875 C2.83200195 7.92560547 2.83200195 7.92560547 2.34179688 6.95703125 C0 2.25346482 0 2.25346482 0 0 Z " fill="#2C9694" transform="translate(244,141)"/>
<path d="M0 0 C0.99 0 1.98 0 3 0 C2.03644647 9.41002278 2.03644647 9.41002278 1 14 C-0.515625 12.78515625 -0.515625 12.78515625 -2 11 C-2.109375 8.80859375 -2.109375 8.80859375 -1.75 6.4375 C-1.64171875 5.65246094 -1.5334375 4.86742188 -1.421875 4.05859375 C-1 2 -1 2 0 0 Z " fill="#E5F5F7" transform="translate(167,104)"/>
<path d="M0 0 C1.625 1.5 1.625 1.5 3 3 C2.67 3.99 2.34 4.98 2 6 C1.34 6 0.68 6 0 6 C0 6.99 0 7.98 0 9 C-0.66 9 -1.32 9 -2 9 C-3.38232443 7.37373596 -4.71937515 5.7074998 -6 4 C-2.25 0 -2.25 0 0 0 Z " fill="#63C4BE" transform="translate(176,57)"/>
<path d="M0 0 C0.66 0.33 1.32 0.66 2 1 C0.625 3 0.625 3 -1 5 C-1.66 5 -2.32 5 -3 5 C-3 5.99 -3 6.98 -3 8 C-9.625 10 -9.625 10 -13 10 C-8.75259665 6.54898478 -4.38894929 3.26720791 0 0 Z " fill="#254E54" transform="translate(257,282)"/>
<path d="M0 0 C2.01136276 2.55991624 3.62845496 5.04590299 5 8 C4.01 8 3.02 8 2 8 C2 7.34 2 6.68 2 6 C1.34 6 0.68 6 0 6 C0 6.66 0 7.32 0 8 C-1.98 8.33 -3.96 8.66 -6 9 C-5.071875 7.88625 -5.071875 7.88625 -4.125 6.75 C-2.39562719 4.51198812 -1.13893339 2.56260013 0 0 Z " fill="#3FABAA" transform="translate(44,120)"/>
<path d="M0 0 C0.33 0.66 0.66 1.32 1 2 C0.34 2 -0.32 2 -1 2 C-1.1546875 2.86625 -1.1546875 2.86625 -1.3125 3.75 C-2.10896465 6.35661158 -3.19065277 7.9735311 -5 10 C-5.66 10 -6.32 10 -7 10 C-7 10.66 -7 11.32 -7 12 C-7.66 12 -8.32 12 -9 12 C-9.33 10.68 -9.66 9.36 -10 8 C-8.47005208 6.76302083 -6.94010417 5.52604167 -5.41015625 4.2890625 C-3.86733563 3.0333609 -3.86733563 3.0333609 -3 1 C-2.01 0.67 -1.02 0.34 0 0 Z " fill="#1A9F9C" transform="translate(222,107)"/>
<path d="M0 0 C0.66 0.33 1.32 0.66 2 1 C1.25 3.375 1.25 3.375 0 6 C-1.33333333 6.66666667 -2.66666667 7.33333333 -4 8 C-4.33 8.845625 -4.66 9.69125 -5 10.5625 C-5.33 11.366875 -5.66 12.17125 -6 13 C-8 13.6875 -8 13.6875 -10 14 C-10.66 14.66 -11.32 15.32 -12 16 C-11.52120052 11.71075465 -9.0280703 9.75682827 -6 6.875 C-2.55947215 3.7664714 -2.55947215 3.7664714 0 0 Z " fill="#0AB0B3" transform="translate(258,205)"/>
<path d="M0 0 C1.625 2 1.625 2 3 4 C2.01 5.32 1.02 6.64 0 8 C-2 7 -4 6 -6 5 C-6 4.34 -6 3.68 -6 3 C-2.53846154 0 -2.53846154 0 0 0 Z " fill="#34A4A2" transform="translate(36,158)"/>
<path d="M0 0 C0.66 0.33 1.32 0.66 2 1 C2.30859375 2.890625 2.30859375 2.890625 2.4375 5.25 C2.77834431 9.20758119 3.5881897 11.74929916 6 15 C3.69 14.67 1.38 14.34 -1 14 C-0.67 9.38 -0.34 4.76 0 0 Z " fill="#2EB4B8" transform="translate(121,131)"/>
<path d="M0 0 C0.66 0.33 1.32 0.66 2 1 C2 1.66 2 2.32 2 3 C2.66 3 3.32 3 4 3 C4 3.66 4 4.32 4 5 C4.66 5 5.32 5 6 5 C6 3.68 6 2.36 6 1 C6.99 1.33 7.98 1.66 9 2 C8.34 2 7.68 2 7 2 C7 3.98 7 5.96 7 8 C5.34385343 8.38218767 3.67542976 8.71395102 2 9 C1 8 1 8 0.9375 4.9375 C0.958125 3.968125 0.97875 2.99875 1 2 C0.34 1.67 -0.32 1.34 -1 1 C-0.67 0.67 -0.34 0.34 0 0 Z " fill="#078B8B" transform="translate(56,247)"/>
<path d="M0 0 C0.66 0 1.32 0 2 0 C2.103125 0.639375 2.20625 1.27875 2.3125 1.9375 C2.539375 2.618125 2.76625 3.29875 3 4 C3.99 4.33 4.98 4.66 6 5 C4.02 5.99 4.02 5.99 2 7 C2 7.66 2 8.32 2 9 C1.34 9 0.68 9 0 9 C-1.625 6.5 -1.625 6.5 -3 4 C-2.34 3.67 -1.68 3.34 -1 3 C-0.67 2.01 -0.34 1.02 0 0 Z " fill="#4CB3B2" transform="translate(162,154)"/>
<path d="M0 0 C1.625 1.5 1.625 1.5 3 3 C2.34 4.65 1.68 6.3 1 8 C-2 8 -2 8 -3.6875 6.625 C-5 5 -5 5 -5 3 C-2.46153846 0 -2.46153846 0 0 0 Z " fill="#3BABAB" transform="translate(54,146)"/>
<path d="M0 0 C0.99 0 1.98 0 3 0 C3.33 0.99 3.66 1.98 4 3 C3.34 3.66 2.68 4.32 2 5 C1.3574765 7.06874034 1.3574765 7.06874034 1 9 C-0.65 9.33 -2.3 9.66 -4 10 C-3.29445932 6.33118845 -1.72264494 3.29549466 0 0 Z " fill="#28AAAA" transform="translate(139,97)"/>
<path d="M0 0 C6.6 0 13.2 0 20 0 C20.33 2.31 20.66 4.62 21 7 C20.34 7 19.68 7 19 7 C18.63261719 6.18144531 18.26523438 5.36289063 17.88671875 4.51953125 C17.26410156 3.68808594 16.64148438 2.85664062 16 2 C13.05906948 1.62140441 10.72355042 1.52224386 7.8125 1.6875 C6.68811523 1.72133789 6.68811523 1.72133789 5.54101562 1.75585938 C3.6931553 1.81470843 1.84632333 1.90439062 0 2 C0 1.34 0 0.68 0 0 Z " fill="#0E9591" transform="translate(227,89)"/>
<path d="M0 0 C0.33 0 0.66 0 1 0 C1 3.63 1 7.26 1 11 C-0.32 11 -1.64 11 -3 11 C-3.36785986 4.62376238 -3.36785986 4.62376238 -1.5625 1.5625 C-1.046875 1.046875 -0.53125 0.53125 0 0 Z " fill="#074851" transform="translate(85,82)"/>
<path d="M0 0 C0.99 0.33 1.98 0.66 3 1 C2.01 2.485 2.01 2.485 1 4 C0.61500109 5.65549531 0.27206865 7.3222433 0 9 C-0.66 9 -1.32 9 -2 9 C-2 8.34 -2 7.68 -2 7 C-3.98 7.99 -3.98 7.99 -6 9 C-6 8.01 -6 7.02 -6 6 C-4.68 5.67 -3.36 5.34 -2 5 C-2.33 4.01 -2.66 3.02 -3 2 C-2.01 1.34 -1.02 0.68 0 0 Z " fill="#07ACB0" transform="translate(241,223)"/>
<path d="M0 0 C1.98 0.66 3.96 1.32 6 2 C5.67 4.31 5.34 6.62 5 9 C4.01 9.33 3.02 9.66 2 10 C3 7 3 7 4 5 C2.68 5 1.36 5 0 5 C0 3.35 0 1.7 0 0 Z " fill="#26B8BA" transform="translate(299,197)"/>
<path d="M0 0 C1.051875 0.433125 1.051875 0.433125 2.125 0.875 C5.05452503 2.02133588 8.00921653 3.02625654 11 4 C11 4.66 11 5.32 11 6 C11.66 6.33 12.32 6.66 13 7 C13 7.99 13 8.98 13 10 C8.17095524 7.39231583 4.07860946 4.68069634 0 1 C0 0.67 0 0.34 0 0 Z " fill="#269491" transform="translate(62,237)"/>
<path d="M0 0 C1.9375 0.75 1.9375 0.75 4 2 C4.75 4.125 4.75 4.125 5 6 C5.66 6 6.32 6 7 6 C7.33 7.32 7.66 8.64 8 10 C7.01 10 6.02 10 5 10 C5 9.34 5 8.68 5 8 C4.34 8 3.68 8 3 8 C3 7.34 3 6.68 3 6 C2.01 6 1.02 6 0 6 C0 4.02 0 2.04 0 0 Z " fill="#0E9395" transform="translate(43,229)"/>
<path d="M0 0 C-2.88147826 2.33994754 -5.60141636 3.79903432 -9.0625 5.125 C-9.91972656 5.45757812 -10.77695312 5.79015625 -11.66015625 6.1328125 C-13.42825866 6.78810254 -15.21113666 7.40371222 -17 8 C-17 7.01 -17 6.02 -17 5 C-15.29196692 4.26320142 -13.58334877 3.52771447 -11.87109375 2.80078125 C-10.36456306 2.15602386 -8.86803509 1.48792064 -7.375 0.8125 C-4.77986487 -0.07530939 -2.72361231 -0.15563499 0 0 Z " fill="#2B9496" transform="translate(283,161)"/>
<path d="M0 0 C0.99 0 1.98 0 3 0 C3 2.97 3 5.94 3 9 C1.68 9 0.36 9 -1 9 C-1.125 2.25 -1.125 2.25 0 0 Z " fill="#04464F" transform="translate(208,90)"/>
<path d="M0 0 C7.59 0 15.18 0 23 0 C23 0.33 23 0.66 23 1 C14.80928447 2.66895458 8.08719369 3.37321711 0 1 C0 0.67 0 0.34 0 0 Z " fill="#1D9599" transform="translate(127,269)"/>
<path d="M0 0 C5.35514317 2.96293636 10.6931372 5.95137669 16 9 C15.34 9.66 14.68 10.32 14 11 C3.85679485 5.60796938 3.85679485 5.60796938 0 2 C0 1.34 0 0.68 0 0 Z " fill="#2D9297" transform="translate(65,247)"/>
<path d="M0 0 C0 0.99 0 1.98 0 3 C-1.65532623 4.01866229 -3.32260138 5.01810813 -5 6 C-5.33 6.99 -5.66 7.98 -6 9 C-7.8125 10.25 -7.8125 10.25 -10 11 C-11.32 10.67 -12.64 10.34 -14 10 C-9.38 6.7 -4.76 3.4 0 0 Z " fill="#38A8AA" transform="translate(198,201)"/>
<path d="M0 0 C0.99 0 1.98 0 3 0 C2.67 3.96 2.34 7.92 2 12 C0.02 12 -1.96 12 -4 12 C-2.68 11.67 -1.36 11.34 0 11 C0 7.37 0 3.74 0 0 Z " fill="#39A9AD" transform="translate(162,111)"/>
<path d="M0 0 C0.66 0 1.32 0 2 0 C0.78184562 4.68520915 -0.69559987 8.70543612 -3 13 C-5.31 12.67 -7.62 12.34 -10 12 C-6.25 10.875 -6.25 10.875 -4 12 C-4 10.68 -4 9.36 -4 8 C-3.34 8 -2.68 8 -2 8 C-1.855625 7.236875 -1.71125 6.47375 -1.5625 5.6875 C-1 3 -1 3 0 0 Z " fill="#39A8A7" transform="translate(232,164)"/>
<path d="M0 0 C0.33 0 0.66 0 1 0 C1.6524214 5.2193712 0.12076053 8.02909179 -2.61328125 12.265625 C-4 14 -4 14 -7 16 C-6.67 14.35 -6.34 12.7 -6 11 C-5.01 11 -4.02 11 -3 11 C-2.86722656 10.28972656 -2.73445312 9.57945313 -2.59765625 8.84765625 C-2.42105469 7.92855469 -2.24445313 7.00945312 -2.0625 6.0625 C-1.88847656 5.14597656 -1.71445313 4.22945313 -1.53515625 3.28515625 C-1 1 -1 1 0 0 Z " fill="#2C9E9D" transform="translate(219,94)"/>
<path d="M0 0 C0 0.66 0 1.32 0 2 C-1.32 2.33 -2.64 2.66 -4 3 C-4 3.66 -4 4.32 -4 5 C-6.3125 5.625 -6.3125 5.625 -9 6 C-9.99 5.34 -10.98 4.68 -12 4 C-10.56570999 3.32645501 -9.12742943 2.66140299 -7.6875 2 C-6.88699219 1.62875 -6.08648437 1.2575 -5.26171875 0.875 C-3 0 -3 0 0 0 Z " fill="#42ACAB" transform="translate(192,255)"/>
<path d="M0 0 C7.28695785 -0.474377 11.97181491 -0.28670939 18 4 C14.35208659 5.21597114 13.32300322 4.33183805 9.984375 2.76953125 C6.71415866 1.5013568 3.48105641 1.30535583 0 1 C0 0.67 0 0.34 0 0 Z " fill="#2CB1A8" transform="translate(217,191)"/>
<path d="M0 0 C0 0.66 0 1.32 0 2 C-4.42778844 4.74522883 -7.71862571 6.48474397 -13 7 C-9.7518905 3.1786947 -5.05744645 0 0 0 Z " fill="#40ABA9" transform="translate(215,243)"/>
<path d="M0 0 C0.33 0 0.66 0 1 0 C1.06058594 0.64066406 1.12117187 1.28132813 1.18359375 1.94140625 C1.67209412 6.98423313 2.23779286 11.9912102 3 17 C2.01 17 1.02 17 0 17 C0 11.39 0 5.78 0 0 Z " fill="#0C3C48" transform="translate(156,81)"/>
<path d="M0 0 C2.64 0 5.28 0 8 0 C7.33501617 4.38889325 5.81242323 7.9811485 4 12 C2.39919849 7.99799622 3.70720308 4.95443764 5 1 C3.35 1 1.7 1 0 1 C0 0.67 0 0.34 0 0 Z " fill="#41ACA6" transform="translate(177,91)"/>
<path d="M0 0 C0.66 0.33 1.32 0.66 2 1 C-0.78999451 4.48749314 -3.25235831 7.50157221 -7 10 C-7.66 9.67 -8.32 9.34 -9 9 C-8.06725891 7.87105124 -7.12859878 6.74699124 -6.1875 5.625 C-5.66542969 4.99851562 -5.14335938 4.37203125 -4.60546875 3.7265625 C-3 2 -3 2 0 0 Z " fill="#214448" transform="translate(73,33)"/>
<path d="M0 0 C5.27112904 2.79692561 9.59398317 5.98235547 14 10 C13.01 10.495 13.01 10.495 12 11 C9.375 9.6875 9.375 9.6875 7 8 C7 7.34 7 6.68 7 6 C6.21625 5.7525 5.4325 5.505 4.625 5.25 C1.67682892 3.84610901 1.0975223 2.99324263 0 0 Z " fill="#2E535A" transform="translate(260,32)"/>
<path d="M0 0 C1.98 0 3.96 0 6 0 C6.33 0.99 6.66 1.98 7 3 C7.66 3 8.32 3 9 3 C9 4.65 9 6.3 9 8 C8.01 8.495 8.01 8.495 7 9 C6.67 8.34 6.34 7.68 6 7 C5.34 7.66 4.68 8.32 4 9 C4.33 6.36 4.66 3.72 5 1 C3.35 1 1.7 1 0 1 C0 0.67 0 0.34 0 0 Z " fill="#446667" transform="translate(79,76)"/>
<path d="M0 0 C-6.55004254 2.69707634 -11.88486245 4.53699151 -19 4 C-19 3.67 -19 3.34 -19 3 C-18.08476562 2.79503906 -17.16953125 2.59007812 -16.2265625 2.37890625 C-15.03804687 2.10949219 -13.84953125 1.84007812 -12.625 1.5625 C-10.84996094 1.16224609 -10.84996094 1.16224609 -9.0390625 0.75390625 C-2.71575985 -0.81472795 -2.71575985 -0.81472795 0 0 Z " fill="#8EACB0" transform="translate(213,325)"/>
<path d="M0 0 C0.66 0.33 1.32 0.66 2 1 C-0.64 4.63 -3.28 8.26 -6 12 C-6.33 11.01 -6.66 10.02 -7 9 C-6.07421875 7.17578125 -6.07421875 7.17578125 -4.6875 5.3125 C-4.23761719 4.68988281 -3.78773438 4.06726563 -3.32421875 3.42578125 C-2.88722656 2.95527344 -2.45023437 2.48476563 -2 2 C-1.34 2 -0.68 2 0 2 C0 1.34 0 0.68 0 0 Z " fill="#294A4F" transform="translate(302,257)"/>
<path d="M0 0 C-0.66 1.32 -1.32 2.64 -2 4 C-4.9375 3.625 -4.9375 3.625 -8 3 C-8.33 2.34 -8.66 1.68 -9 1 C-6.04335481 -0.4783226 -3.25770263 -0.06032783 0 0 Z " fill="#099197" transform="translate(73,236)"/>
<path d="M0 0 C0.66 0 1.32 0 2 0 C2 0.99 2 1.98 2 3 C2.99 3.33 3.98 3.66 5 4 C2.36 5.65 -0.28 7.3 -3 9 C-3 6 -3 6 -1 3 C-0.67 2.01 -0.34 1.02 0 0 Z " fill="#28A8AD" transform="translate(211,231)"/>
<path d="M0 0 C0.33 0 0.66 0 1 0 C1.33 2.64 1.66 5.28 2 8 C4.97 8.495 4.97 8.495 8 9 C8.33 7.68 8.66 6.36 9 5 C9 6.65 9 8.3 9 10 C6.03 10 3.06 10 0 10 C-0.95024979 6.30458414 -0.95024979 3.69541586 0 0 Z " fill="#6ECAC7" transform="translate(59,105)"/>
<path d="M0 0 C0.33 0 0.66 0 1 0 C1 1.65 1 3.3 1 5 C2.32 5 3.64 5 5 5 C5 3.68 5 2.36 5 1 C6.32 1.33 7.64 1.66 9 2 C7.35 3.98 5.7 5.96 4 8 C2.68 7.34 1.36 6.68 0 6 C0 4.02 0 2.04 0 0 Z " fill="#0D8F91" transform="translate(155,93)"/>
<path d="M0 0 C0.33 0.99 0.66 1.98 1 3 C-2.3 5.97 -5.6 8.94 -9 12 C-9.66 11.34 -10.32 10.68 -11 10 C-9.93458984 9.04287109 -9.93458984 9.04287109 -8.84765625 8.06640625 C-7.46900391 6.82697266 -7.46900391 6.82697266 -6.0625 5.5625 C-4.68771484 4.32693359 -4.68771484 4.32693359 -3.28515625 3.06640625 C-1.61665644 1.56046061 -1.61665644 1.56046061 0 0 Z " fill="#204548" transform="translate(273,268)"/>
<path d="M0 0 C1.32 0.66 2.64 1.32 4 2 C3.34 3.65 2.68 5.3 2 7 C1.01 7 0.02 7 -1 7 C-1.625 4.625 -1.625 4.625 -2 2 C-1.34 1.34 -0.68 0.68 0 0 Z " fill="#24B0AA" transform="translate(175,177)"/>
<path d="M0 0 C0.33 0 0.66 0 1 0 C1.6875 2.75 1.6875 2.75 2 6 C0.625 8.0625 0.625 8.0625 -1 10 C-1.71433121 12.64934822 -1.71433121 12.64934822 -2 15 C-2.66 15 -3.32 15 -4 15 C-2.9318153 9.88634986 -1.76892524 4.92772031 0 0 Z " fill="#31BCB7" transform="translate(73,146)"/>
<path d="M0 0 C0.33 0 0.66 0 1 0 C1 3.96 1 7.92 1 12 C-1.24497221 9.75502779 -1.37003419 9.03972651 -1.75 6 C-1.84796875 5.29875 -1.9459375 4.5975 -2.046875 3.875 C-2 2 -2 2 0 0 Z " fill="#10BDBF" transform="translate(69,86)"/>
<path d="M0 0 C3.96 0 7.92 0 12 0 C12 0.66 12 1.32 12 2 C7.28400182 2.92470553 4.32734391 3.22923777 0 1 C0 0.67 0 0.34 0 0 Z " fill="#133A3F" transform="translate(264,71)"/>
<path d="M0 0 C-0.66666667 2 -1.33333333 4 -2 6 C-2.66 6 -3.32 6 -4 6 C-4 5.34 -4 4.68 -4 4 C-4.66 4 -5.32 4 -6 4 C-6.33 2.68 -6.66 1.36 -7 0 C-3.98968256 -0.93423645 -3.13349732 -1.04449911 0 0 Z " fill="#0BBFBC" transform="translate(170,33)"/>
<path d="M0 0 C-1.65 0.33 -3.3 0.66 -5 1 C-5.33 1.99 -5.66 2.98 -6 4 C-8.64 3.67 -11.28 3.34 -14 3 C-14 2.67 -14 2.34 -14 2 C-12.42085985 1.46658816 -10.83645613 0.94874237 -9.25 0.4375 C-8.36828125 0.14746094 -7.4865625 -0.14257812 -6.578125 -0.44140625 C-3.92165684 -1.01697435 -2.52968894 -0.89248371 0 0 Z " fill="#52B2B1" transform="translate(174,263)"/>
<path d="M0 0 C0.99 0 1.98 0 3 0 C2.67 1.32 2.34 2.64 2 4 C1.34 4 0.68 4 0 4 C0 4.99 0 5.98 0 7 C-1.65 7.33 -3.3 7.66 -5 8 C-4.24266726 6.6589523 -3.46867264 5.32730219 -2.6875 4 C-2.25824219 3.2575 -1.82898438 2.515 -1.38671875 1.75 C-0.70029297 0.88375 -0.70029297 0.88375 0 0 Z " fill="#1F4A50" transform="translate(288,249)"/>
<path d="M0 0 C0 0.99 0 1.98 0 3 C-3.6441774 5.4294516 -5.71241272 5.16179575 -10 5 C-3.63636364 0 -3.63636364 0 0 0 Z " fill="#2FAAA5" transform="translate(202,250)"/>
<path d="M0 0 C2.35448165 2.55068845 2.98327924 3.71017358 3.1875 7.25 C3.125625 8.1575 3.06375 9.065 3 10 C0.69 10 -1.62 10 -4 10 C-2.68 9.67 -1.36 9.34 0 9 C0 6.03 0 3.06 0 0 Z " fill="#45A2A1" transform="translate(294,150)"/>
<path d="M0 0 C1.53760842 3.07521683 0.36599236 5.34675118 -0.4375 8.625 C-0.72496094 9.81351563 -1.01242188 11.00203125 -1.30859375 12.2265625 C-1.53675781 13.14179688 -1.76492187 14.05703125 -2 15 C-2.33 15 -2.66 15 -3 15 C-3.08142927 13.2507786 -3.13938541 11.50045458 -3.1875 9.75 C-3.22230469 8.77546875 -3.25710937 7.8009375 -3.29296875 6.796875 C-2.96075202 3.62531258 -2.11327721 2.32959693 0 0 Z " fill="#537878" transform="translate(27,125)"/>
<path d="M0 0 C3.96 0.33 7.92 0.66 12 1 C11.67 1.66 11.34 2.32 11 3 C7.37 3 3.74 3 0 3 C0 2.01 0 1.02 0 0 Z " fill="#28B3AB" transform="translate(115,109)"/>
<path d="M0 0 C2.53910197 0.38520564 3.72751123 0.70097943 5.484375 2.62890625 C5.90203125 3.26699219 6.3196875 3.90507812 6.75 4.5625 C7.17796875 5.20316406 7.6059375 5.84382813 8.046875 6.50390625 C8.36140625 6.99761719 8.6759375 7.49132812 9 8 C8.34 8.66 7.68 9.32 7 10 C5.83043409 8.52312468 4.66441854 7.04343707 3.5 5.5625 C2.8503125 4.73878906 2.200625 3.91507812 1.53125 3.06640625 C0 1 0 1 0 0 Z " fill="#213F43" transform="translate(36,264)"/>
<path d="M0 0 C-3.96 1.98 -7.92 3.96 -12 6 C-11.67 5.01 -11.34 4.02 -11 3 C-10.34 3 -9.68 3 -9 3 C-9 2.34 -9 1.68 -9 1 C-5.19495213 -0.79682816 -4.29399165 -1.07349791 0 0 Z " fill="#2BA6AB" transform="translate(207,241)"/>
<path d="M0 0 C2.40034102 3.60051153 4.32187705 6.96144535 3.625 11.375 C3.41875 11.91125 3.2125 12.4475 3 13 C-0.36055646 8.51925805 -0.27429625 5.39449293 0 0 Z " fill="#527478" transform="translate(27,207)"/>
<path d="M0 0 C0.66 0 1.32 0 2 0 C1.32584613 5.2584002 -0.24265549 10.02638346 -2 15 C-2.33 15 -2.66 15 -3 15 C-2.5547115 9.72684667 -1.91626837 4.98229776 0 0 Z " fill="#41B5B0" transform="translate(178,104)"/>
<path d="M0 0 C1.65 0.33 3.3 0.66 5 1 C5 1.66 5 2.32 5 3 C2.69 4.32 0.38 5.64 -2 7 C-2.33 5.68 -2.66 4.36 -3 3 C-2.34 3 -1.68 3 -1 3 C-0.67 2.01 -0.34 1.02 0 0 Z " fill="#36BDB5" transform="translate(170,32)"/>
<path d="M0 0 C0.99 0.33 1.98 0.66 3 1 C0.19195732 3.96404505 -2.18315774 6.44499019 -6 8 C-5.67 6.02 -5.34 4.04 -5 2 C-3.68 2 -2.36 2 -1 2 C-0.67 1.34 -0.34 0.68 0 0 Z " fill="#26A7A7" transform="translate(256,274)"/>
<path d="M0 0 C3.78383679 0.92493788 5.56693694 1.39371171 7.875 4.625 C8.431875 5.800625 8.431875 5.800625 9 7 C6 7 6 7 4.39453125 5.46875 C3.87246094 4.8190625 3.35039063 4.169375 2.8125 3.5 C2.28269531 2.8503125 1.75289063 2.200625 1.20703125 1.53125 C0.80871094 1.0259375 0.41039063 0.520625 0 0 Z " fill="#369190" transform="translate(65,264)"/>
<path d="M0 0 C2.22825644 2.22825644 2.69239369 3.65761628 3.625 6.625 C4.01558594 7.85089844 4.01558594 7.85089844 4.4140625 9.1015625 C4.60742188 9.72804687 4.80078125 10.35453125 5 11 C3.68 11 2.36 11 1 11 C0.67 7.37 0.34 3.74 0 0 Z " fill="#32555F" transform="translate(31,220)"/>
<path d="M0 0 C0.66 0.33 1.32 0.66 2 1 C2 1.66 2 2.32 2 3 C2.66 3.33 3.32 3.66 4 4 C3.01 4 2.02 4 1 4 C0.87625 4.804375 0.7525 5.60875 0.625 6.4375 C0.41875 7.283125 0.2125 8.12875 0 9 C-0.99 9.495 -0.99 9.495 -2 10 C-1.54177532 6.53058454 -1.10868317 3.32604951 0 0 Z " fill="#264952" transform="translate(309,203)"/>
<path d="M0 0 C0.33 0 0.66 0 1 0 C1.05447047 1.41623216 1.09300508 2.83308191 1.125 4.25 C1.14820312 5.03890625 1.17140625 5.8278125 1.1953125 6.640625 C0.9828378 9.20731941 0.28654105 10.7916067 -1 13 C-1.33 13 -1.66 13 -2 13 C-1.85769192 11.58297487 -1.71099254 10.1663904 -1.5625 8.75 C-1.48128906 7.96109375 -1.40007813 7.1721875 -1.31640625 6.359375 C-1.02365007 4.17635361 -0.57935581 2.1226818 0 0 Z " fill="#45C4C5" transform="translate(64,177)"/>
<path d="M0 0 C1.34937238 5.03138075 1.34937238 5.03138075 0 8 C-1.90047954 9.84240933 -3.89091152 11.38452797 -6 13 C-4.31326082 8.50202887 -2.18326108 4.27113698 0 0 Z " fill="#3AB5B2" transform="translate(87,117)"/>
<path d="M0 0 C0.66 0.33 1.32 0.66 2 1 C1.71125 1.845625 1.4225 2.69125 1.125 3.5625 C-0.00772704 7.02361041 -1.01824316 10.49372557 -2 14 C-2.33 14 -2.66 14 -3 14 C-3.34615998 8.34605369 -2.43425238 4.96993194 0 0 Z " fill="#35ACAC" transform="translate(168,97)"/>
<path d="M0 0 C0.33 1.32 0.66 2.64 1 4 C2.65 4.33 4.3 4.66 6 5 C6.33 6.32 6.66 7.64 7 9 C5.68 8.67 4.36 8.34 3 8 C3 7.01 3 6.02 3 5 C2.34 5 1.68 5 1 5 C0.67 5.99 0.34 6.98 0 8 C0 5.36 0 2.72 0 0 Z " fill="#12A1A8" transform="translate(86,85)"/>
<path d="M0 0 C-5.24882694 3.17692157 -10.01488629 3.65697965 -16 4 C-13.3719961 2.65666765 -10.74037974 1.40972236 -8 0.3125 C-7.34 0.04050781 -6.68 -0.23148438 -6 -0.51171875 C-3.65456399 -1.08433496 -2.26562596 -0.75352292 0 0 Z " fill="#557378" transform="translate(126,10)"/>
<path d="M0 0 C0.66 0.33 1.32 0.66 2 1 C1.44894091 4.9492568 0.61064629 8.34920174 -1 12 C-2.37520651 8.17998192 -1.74051523 4.92473073 -1 1 C-0.67 0.67 -0.34 0.34 0 0 Z " fill="#36A2A6" transform="translate(238,147)"/>
<path d="M0 0 C0.33 0 0.66 0 1 0 C1.38063221 2.3260857 1.71269945 4.66055264 2 7 C1.67 7.33 1.34 7.66 1 8 C2.98 8 4.96 8 7 8 C7 8.66 7 9.32 7 10 C4.36 10 1.72 10 -1 10 C-0.67 6.7 -0.34 3.4 0 0 Z " fill="#4FB0B5" transform="translate(168,113)"/>
<path d="M0 0 C0.33 0 0.66 0 1 0 C1.33 3.63 1.66 7.26 2 11 C-0.475 10.01 -0.475 10.01 -3 9 C-2.01 8.67 -1.02 8.34 0 8 C0 5.36 0 2.72 0 0 Z " fill="#138989" transform="translate(211,91)"/>
<path d="M0 0 C0.66 0.33 1.32 0.66 2 1 C0.79618552 3.49361571 -0.45428722 5.68143083 -2 8 C-2.99 7.67 -3.98 7.34 -5 7 C-3.35 4.69 -1.7 2.38 0 0 Z " fill="#2A4D4E" transform="translate(40,64)"/>
<path d="M0 0 C2.5999298 2.51027705 4.99091227 4.9863684 7 8 C7 8.66 7 9.32 7 10 C3.78634109 8.89184175 3.0085776 8.01470446 1.25 5 C0 2 0 2 0 0 Z " fill="#2C4D56" transform="translate(44,246)"/>
<path d="M0 0 C0.99 0.33 1.98 0.66 3 1 C2.74438677 3.3431213 2.40729228 5.67843403 2 8 C1.01 8.495 1.01 8.495 0 9 C0 6.03 0 3.06 0 0 Z " fill="#04ABA7" transform="translate(178,94)"/>
<path d="M0 0 C1.65 0.33 3.3 0.66 5 1 C4.01 1.33 3.02 1.66 2 2 C2 3.65 2 5.3 2 7 C-0.97 6.505 -0.97 6.505 -4 6 C-2.68 5.67 -1.36 5.34 0 5 C0 3.35 0 1.7 0 0 Z " fill="#0F8585" transform="translate(265,88)"/>
<path d="M0 0 C0 3.54404336 -0.60989485 4.10267905 -2.875 6.6875 C-3.40867187 7.31011719 -3.94234375 7.93273438 -4.4921875 8.57421875 C-6 10 -6 10 -8 10 C-6.34908222 5.70761377 -3.26245434 3.1206085 0 0 Z " fill="#345256" transform="translate(53,50)"/>
<path d="M0 0 C0.33 0 0.66 0 1 0 C1.375 2.1875 1.375 2.1875 1 5 C-0.83961648 6.99022836 -2.79186148 8.38989899 -5 10 C-3.66654496 6.40992874 -2.1056769 3.20429093 0 0 Z " fill="#274C51" transform="translate(295,238)"/>
<path d="M0 0 C6.625 0.75 6.625 0.75 10 3 C10 3.66 10 4.32 10 5 C6.08788267 3.84414715 3.1254959 2.64465038 0 0 Z " fill="#46C2C1" transform="translate(63,190)"/>
<path d="M0 0 C0.33 1.32 0.66 2.64 1 4 C1.6469365 5.6744239 2.30959426 7.34302621 3 9 C1.35 9 -0.3 9 -2 9 C-1.34 6.03 -0.68 3.06 0 0 Z " fill="#3CADAB" transform="translate(191,159)"/>
<path d="M0 0 C0.99 0.66 1.98 1.32 3 2 C2.34 3.65 1.68 5.3 1 7 C0.01 7 -0.98 7 -2 7 C-1.125 2.25 -1.125 2.25 0 0 Z " fill="#37B3AF" transform="translate(194,151)"/>
<path d="M0 0 C2.61724095 2.36797991 4.32861729 4.89600354 6 8 C6 8.66 6 9.32 6 10 C4.68 9.67 3.36 9.34 2 9 C1.855625 8.2575 1.71125 7.515 1.5625 6.75 C1.09812508 4.47972261 0.58136431 2.24240521 0 0 Z " fill="#3B9B9E" transform="translate(288,140)"/>
<path d="M0 0 C0.33 0 0.66 0 1 0 C1.98248524 4.0527516 2.08159574 7.83861737 2 12 C-0.79496066 9.20503934 -0.66104876 6.86404416 -1 3 C-0.67 2.01 -0.34 1.02 0 0 Z " fill="#1E4246" transform="translate(311,129)"/>
<path d="M0 0 C3.71599191 -0.20086443 4.77208445 -0.1519437 8 2 C8 2.66 8 3.32 8 4 C8.66 4 9.32 4 10 4 C9.67 4.66 9.34 5.32 9 6 C6.03 4.35 3.06 2.7 0 1 C0 0.67 0 0.34 0 0 Z " fill="#27464B" transform="translate(236,37)"/>
<path d="M0 0 C0.66 0 1.32 0 2 0 C2.99 1.98 3.98 3.96 5 6 C4.01 6 3.02 6 2 6 C2 5.34 2 4.68 2 4 C0.68 4.33 -0.64 4.66 -2 5 C-1.34 3.35 -0.68 1.7 0 0 Z " fill="#4BC3BF" transform="translate(166,26)"/>
<path d="M0 0 C1.98 0.99 3.96 1.98 6 3 C6 3.33 6 3.66 6 4 C3.69 4.33 1.38 4.66 -1 5 C-0.67 3.35 -0.34 1.7 0 0 Z " fill="#1C4551" transform="translate(82,286)"/>
<path d="M0 0 C5.75 1.75 5.75 1.75 8 4 C5.69 4 3.38 4 1 4 C0.67 2.68 0.34 1.36 0 0 Z " fill="#228F8E" transform="translate(85,259)"/>
<path d="M0 0 C0.33 0.66 0.66 1.32 1 2 C-0.75 4.0625 -0.75 4.0625 -3 6 C-4.32 5.67 -5.64 5.34 -7 5 C-4.69 3.35 -2.38 1.7 0 0 Z " fill="#3EADAE" transform="translate(206,195)"/>
<path d="M0 0 C1.5 1.375 1.5 1.375 3 3 C3 3.66 3 4.32 3 5 C0.69 4.67 -1.62 4.34 -4 4 C-2.68 2.68 -1.36 1.36 0 0 Z " fill="#17A7A5" transform="translate(198,164)"/>
<path d="M0 0 C1.46726798 3.81489674 0.43336419 6.29011622 -1 10 C-1.66 10 -2.32 10 -3 10 C-2.49287967 6.28111761 -1.88391785 3.26545761 0 0 Z " fill="#48C3C1" transform="translate(77,136)"/>
<path d="M0 0 C0 0.99 0 1.98 0 3 C-0.99 3.495 -0.99 3.495 -2 4 C-2.33 4.99 -2.66 5.98 -3 7 C-4.32 7 -5.64 7 -7 7 C-7 5 -7 5 -4.625 2.375 C-2 0 -2 0 0 0 Z " fill="#58BEBF" transform="translate(293,109)"/>
<path d="M0 0 C2.0625 0.4375 2.0625 0.4375 4 1 C4 1.66 4 2.32 4 3 C3.34 3 2.68 3 2 3 C2 3.99 2 4.98 2 6 C1.34 6 0.68 6 0 6 C-0.38218767 4.34385343 -0.71395102 2.67542976 -1 1 C-0.67 0.67 -0.34 0.34 0 0 Z " fill="#40BBBA" transform="translate(174,60)"/>
<path d="M0 0 C1.98 0.66 3.96 1.32 6 2 C4.68 3.32 3.36 4.64 2 6 C2 5.34 2 4.68 2 4 C1.34 4 0.68 4 0 4 C0 2.68 0 1.36 0 0 Z " fill="#26BDBD" transform="translate(150,50)"/>
<path d="M0 0 C1.32 0.33 2.64 0.66 4 1 C-1.75 5 -1.75 5 -4 5 C-4 4.01 -4 3.02 -4 2 C-2.68 2 -1.36 2 0 2 C0 1.34 0 0.68 0 0 Z " fill="#33A3A4" transform="translate(241,285)"/>
<path d="M0 0 C-3.08888522 2.05925681 -3.70935927 2.2390374 -7.1875 2.125 C-9.0746875 2.063125 -9.0746875 2.063125 -11 2 C-6.98764085 -0.6749061 -4.6342454 -1.48957888 0 0 Z " fill="#5BB4B1" transform="translate(142,233)"/>
<path d="M0 0 C-0.33 0.99 -0.66 1.98 -1 3 C-5.455 3.495 -5.455 3.495 -10 4 C-6.86268382 1.90845588 -3.85464592 0 0 0 Z " fill="#66B9B6" transform="translate(159,225)"/>
<path d="M0 0 C0.66 1.32 1.32 2.64 2 4 C1.01 4.99 0.02 5.98 -1 7 C-1.99 6.34 -2.98 5.68 -4 5 C-2.68 3.35 -1.36 1.7 0 0 Z " fill="#02ADB4" transform="translate(223,221)"/>
<path d="M0 0 C4.875 1.75 4.875 1.75 6 4 C4.02 4 2.04 4 0 4 C-0.33 3.01 -0.66 2.02 -1 1 C-0.67 0.67 -0.34 0.34 0 0 Z " fill="#13908B" transform="translate(131,300)"/>
<path d="M0 0 C0.66 0.99 1.32 1.98 2 3 C0.625 5.5 0.625 5.5 -1 8 C-1.66 8 -2.32 8 -3 8 C-1.125 2.25 -1.125 2.25 0 0 Z " fill="#275057" transform="translate(299,230)"/>
<path d="M0 0 C4.875 4.75 4.875 4.75 6 7 C5.34 7 4.68 7 4 7 C3.67 7.66 3.34 8.32 3 9 C0 3.375 0 3.375 0 0 Z " fill="#63A0A8" transform="translate(36,218)"/>
<path d="M0 0 C2 2 2 2 2.125 5.125 C2.08375 6.07375 2.0425 7.0225 2 8 C1.34 8 0.68 8 0 8 C-0.79953138 4.71303767 -1.09658936 3.28976808 0 0 Z " fill="#112F3D" transform="translate(311,198)"/>
<path d="M0 0 C1.32 0.33 2.64 0.66 4 1 C4 2.32 4 3.64 4 5 C2.68 5 1.36 5 0 5 C0 3.35 0 1.7 0 0 Z " fill="#07BBC4" transform="translate(299,197)"/>
<path d="M0 0 C0.33 0.99 0.66 1.98 1 3 C3.01508358 3.73323796 3.01508358 3.73323796 5 4 C4.67 4.66 4.34 5.32 4 6 C2 5 0 4 -2 3 C-2 2.34 -2 1.68 -2 1 C-1.34 0.67 -0.68 0.34 0 0 Z " fill="#55ACAB" transform="translate(32,160)"/>
<path d="M0 0 C0.99 0 1.98 0 3 0 C3.33 1.65 3.66 3.3 4 5 C3.01 5 2.02 5 1 5 C0.34 4.34 -0.32 3.68 -1 3 C-0.67 2.01 -0.34 1.02 0 0 Z " fill="#079792" transform="translate(291,150)"/>
<path d="M0 0 C2.97 1.98 2.97 1.98 6 4 C2.94736336 4.98120464 1.05263664 4.98120464 -2 4 C-2 3.34 -2 2.68 -2 2 C-1.34 2 -0.68 2 0 2 C0 1.34 0 0.68 0 0 Z " fill="#31B5B4" transform="translate(109,104)"/>
<path d="M0 0 C0.33 0 0.66 0 1 0 C1.125 5.75 1.125 5.75 0 8 C-0.66 8 -1.32 8 -2 8 C-1.125 1.125 -1.125 1.125 0 0 Z " fill="#FAFEFD" transform="translate(73,89)"/>
<path d="M0 0 C2.72426311 2.35277269 3.8141763 4.62496331 5 8 C3.0625 7.375 3.0625 7.375 1 6 C0.25 2.875 0.25 2.875 0 0 Z " fill="#47686D" transform="translate(306,80)"/>
</svg>
